<?xml version="1.0" encoding="UTF-8"?>
<svg id="Ebene_1" data-name="Ebene 1" xmlns="http://www.w3.org/2000/svg" viewBox="0 0 356.39341 471.25155">
  <defs>
    <style>
      .cls-1 {
        fill: #31061d;
      }

      .cls-2 {
        fill: #ff8382;
      }

      .cls-3 {
        fill: #92eb9f;
      }

      .cls-4 {
        fill: #2e0a19;
      }

      .cls-5 {
        fill: #fbfbfa;
      }

      .cls-6 {
        fill: #ff6b6a;
      }

      .cls-7 {
        fill: #fbfbfc;
      }

      .cls-8 {
        fill: #c3ebc9;
      }

      .cls-9 {
        fill: #ff7271;
      }

      .cls-10 {
        fill: #310f1e;
      }

      .cls-11 {
        fill: #fcfbfa;
      }

      .cls-12 {
        fill: #fb5d6a;
      }

      .cls-13 {
        fill: #2e051b;
      }

      .cls-14 {
        fill: #2f041d;
      }

      .cls-15 {
        fill: #f96918;
      }

      .cls-16 {
        fill: #2e051a;
      }

      .cls-17 {
        fill: #2d0912;
      }

      .cls-18 {
        fill: #75db85;
      }
    </style>
  </defs>
  <path class="cls-1" d="M196.2172,448.00548c-26.06617-21.67356-47.67413-47.29603-66.2434-75.51049-2.714-4.12274-5.17478-4.91561-9.75045-4.13958-23.62968,4.01302-43.86239-2.93195-60.74839-19.79654-1.42093-1.41954-2.57822-1.95621-4.74019-1.58881-7.56866,1.28693-14.14762-3.12709-16.19224-10.50209-.35679-1.28981-.82647-2.40439-1.73361-3.45643-4.55882-5.28003-4.6046-11.87738-.25461-18.59058,3.81481-5.8899,10.80547-8.71059,17.09176-6.74219,1.55373.48638,2.57218.96052,4.04048-.58856,4.76011-5.01318,10.71101-6.24665,15.65249-3.65316,5.07418,2.66514,7.89185,8.82036,6.37777,15.25457-.57176,2.43342.01684,3.55405,1.83123,4.81953,7.48472,5.21294,15.60829,8.52308,25.16508,8.97898-3.92154-8.76396-7.99096-17.1193-11.44442-25.71855-11.83918-29.48608-21.33808-59.61097-21.65672-91.77285-.28821-29.1171,8.6099-54.84323,29.67057-75.72085,5.43554-5.38826,12.00389-9.3113,17.88007-14.12175-2.24591-4.65946-2.13768-4.98876,2.00042-6.00576,4.29955,3.34215,7.68749.38117,11.20339-1.64055,1.66345-1.76865,2.87099-3.65162,2.2245-6.27871-.16155-.66017-.06859-1.68783.97127-1.77167.71665-.05793,1.02459.68306,1.38445,1.22281,1.06265,1.59481.32013,4.38805,2.44105,5.03608,2.39834.73336,4.79054-.77607,7.18888-1.28078,1.50943-.31864,3.1028-.49396,4.40183-1.46825.54887-.50773.98951-1.1176,1.52162-1.64362,1.71677-1.16944,3.23541.462,4.88053.33236,1.69546-.21799,3.40469-.25154,5.10164-.47265,1.86473-.75318,3.72333-1.80829,5.64287-.13415,1.50943,1.87078,3.48547.63271,5.17944.62513,36.21752-.19366,63.4409,16.25626,83.69501,45.3474,10.868,15.60982,17.79771,33.06451,22.88101,51.31054,6.42048,23.04726,10.92291,46.4254,12.51014,70.32803.02289.35526.27899.69828.54738,1.33257,9.06887-5.64441,14.8947-13.56976,18.47621-23.38577.75164-2.06137-.67999-2.94418-1.40427-4.17611-4.14405-7.0639-2.65751-14.62944,3.66237-18.26738,3.61501-2.07812,7.35359-1.84789,11.03262-.44366,1.53996.58702,2.38466.53212,3.7264-.60684,4.97052-4.22185,12.05573-4.30877,18.00356-.52449,6.82911,4.34083,9.16957,9.59946,7.38105,16.61003-.29277,1.14808-.44064,2.24433-.25768,3.47476,1.19387,7.99548-2.90152,14.45258-10.64084,16.32182-2.191.53063-2.67426,1.50948-3.2704,3.46564-6.30313,20.69164-19.74638,34.89719-39.69238,43.06194-.24242.1006-.50159.16616-.7563.22716-4.0831.98802-5.79075,2.93199-5.94932,7.76222-1.17702,35.92792-6.98461,71.04613-19.86066,104.78918-.34302,4.55575-3.08289,8.19523-4.68082,12.27377-4.81957,10.15442-11.4916,18.99613-19.19286,27.11664-2.82521,2.76732-6.14596,4.04811-10.11478,3.38636-11.61509-2.57981-22.45871-7.04715-32.55375-13.33958-4.38805-3.01123-9.2884-5.36379-12.62897-9.7336v-.00149Z"/>
  <path class="cls-10" d="M159.09998,112.91135c-1.59021-.061-2.68189-1.82048-4.44296-1.30056-1.58109-1.02766-1.3127-2.71246-1.41795-4.21273-.40556-5.82281-.37959-11.65478-.27136-17.48824-.1784-13.65212,1.5018-27.21425,1.95621-40.83739.17076-6.329-.28058-12.56197-2.1468-18.68666-3.08447-10.12548-15.05179-17.21836-25.41969-11.48094-5.19004,4.6549-5.20838,10.65303-4.2493,16.80974,1.29753,8.32789,3.09201,16.55666,5.25258,24.70918,4.34841,16.41028,7.0303,33.2109,11.58912,49.57544,1.39971,5.02235,1.3784,5.07418,6.44338,4.11055,2.60568-.52905,5.12453-2.15894,7.88878-.62052-3.99618,2.4197-8.66481,2.58283-13.01173,3.82085-1.33262.38117-1.7458-.80655-2.01717-1.86013-.44827-1.75339-.87979-3.51134-1.80071-5.33945,2.15294,3.86203-.33846,6.24665-2.36167,8.77462-2.69874-3.21559-2.97475-7.24229-3.38943-11.10284-.39951-3.72635-1.59784-6.87638-4.35911-9.40124-8.71971-7.49998-17.54161-14.85204-28.45688-19.08612-.6114-.23786-1.14957-.61596-1.66801-1.01696-8.62675-4.77839-18.13775-7.03189-27.54052-9.54157-8.94846-2.38917-18.10425-3.42595-27.37134-3.44885-6.08956-.37964-12.0923.50927-17.96391,1.83575-4.4826,1.01393-8.10682,3.71109-10.156,8.08086-4.85615,7.01058-7.21335,14.72855-6.59432,23.29122,1.18316,15.39788,13.89608,20.04822,24.12988,18.98399,9.87086-1.02613,19.22329-4.26763,28.82736-6.42202,7.05627-1.58262,14.15981-2.80697,21.36395-3.42293,2.74452.08994,5.47983-.27294,8.22268-.3004,12.25701-.12196,23.66476,2.29774,32.91818,11.09367.21953.40863.17076.78217-.14182,1.12221-3.50529.95749-1.65274,3.58453-1.74729,5.60477-1.46374-1.09322-2.96861-2.13456-4.38498-3.28878-9.65134-7.86742-21.01339-8.17541-32.59647-7.31851-12.01915.88886-23.66318,3.8102-35.31345,6.70255-7.14775,1.77321-14.23603,3.83002-21.7589,3.49915C11.3374,124.05532.25285,112.922.00587,97.18259c-.15709-9.89376,2.8481-18.8391,8.17848-27.16242,5.22206-8.15405,13.41114-10.06601,22.07297-11.12722,8.78681-1.07796,17.54468-.56869,26.26737.8401,1.37989.2226,2.7582.81879,4.70827.10674-3.97329-2.59958-7.91614-4.57408-11.3132-7.3978-9.18325-7.63566-11.68525-16.24105-7.50305-27.40791,3.60589-9.62537,9.69405-17.39676,17.999-23.48027,1.95314-1.42866,3.85296-1.82965,6.22841-1.37677,12.17922,2.31445,22.32303,8.46813,31.36752,16.60542,6.54556,5.8899,12.41252,12.4369,18.05846,20.26775-.2333-3.10122-.54738-5.43861-.56264-7.77748-.08682-13.13829,9.94866-21.57743,22.94671-19.356,13.14741,2.24437,22.31688,14.05465,22.72709,29.96176,4.58469-8.34766,10.76582-14.39306,18.47165-18.86194,6.23594-3.61505,12.77238-6.21161,20.19456-5.7344,9.34945.59921,15.8294,5.53921,19.57097,13.76798,3.54642,7.80033,1.83421,15.11581-3.48695,21.7589-5.41879,6.76052-12.61232,11.44739-19.24014,16.78992-4.28895,3.45801-8.66332,6.80319-12.60766,10.66066-7.60821,7.44358-12.34244,16.27153-13.11549,27.04349-.13717,1.9242-.55492,3.83156-.84312,5.74505-2.08268-.31864-3.93671.38271-5.74812,1.28227-1.57653-3.33452-.00456-6.70864-.12805-10.06145,2.29625-13.28616,8.84023-23.99717,19.19137-32.62843,6.58055-5.48435,13.43404-10.62102,19.98564-16.12975,3.02352-2.54012,5.91433-5.23276,8.03061-8.65262,5.43851-8.78835,2.32668-17.83893-7.37649-21.74368-6.28787-2.531-12.05731-.2058-17.54012,2.11479-10.19713,4.31486-17.354,12.17466-22.82155,21.64606-1.14054,1.97752-1.60556,4.17918-1.87088,6.40829-.9453,7.98021-1.70458,15.97876-2.05681,24.01392-.25768,10.4792-.4452,20.95537.0778,31.43001.07315,1.45913.02131,2.88472-.76998,4.17918l.00149.00461Z"/>
  <path class="cls-2" d="M180.10118,422.98521c-10.2338-9.72904-19.10287-20.65809-27.74944-31.76851-20.32112-26.11643-36.39136-54.73347-49.29644-85.11906-9.03528-21.27405-16.24249-43.18389-19.93688-66.08175-3.68061-22.81857-3.71719-45.45111,5.83653-67.08345,12.65345-28.65054,34.39252-46.28819,65.22337-52.31987,3.40618-.66631,6.95111-.93465,10.41973-1.48203.31566,1.0231-.55501,1.3067-1.41795,2.04159,5.04366,1.34932,10.4121,1.12826,14.52423,4.60763.25461.30798.40556.7181.69069.96052,7.36123,6.29853,7.25449,15.25303,8.4986,23.73493.39951,2.72312-.12042,5.10773-1.55364,7.52738-1.58267,2.67128-.7456,5.18856,1.59486,6.40829,6.4632,3.36961,7.71039,10.55853,2.74136,15.77449-2.28546,1.41646-4.97201,1.60398-7.4527,2.43035-3.90321,1.29907-7.35359,3.33908-10.83748,6.68124,9.39058-1.46067,17.14666-5.77404,25.48371-8.25167,2.9701,1.17404,3.56624,2.43189,1.73817,4.75401-2.02182,2.56911-3.8712,5.34252-6.49065,7.38407-2.17425,1.69397-2.81004,3.36654-.46809,5.434.89198.78524,1.6573,1.80829,1.86017,2.97471,1.35542,7.72714,5.26319,15.22102,4.50084,22.98626-.523,5.32577-1.19991,9.81601,2.14522,14.39311,1.14966,1.57499-.12954,3.8209-1.06879,5.58192-1.1679,2.19096-1.16939,3.97789,1.39357,5.19004,1.98059.93767,2.21231,2.40444,1.14966,3.87427,3.90628-.59921,7.93447-1.67871,11.981-2.68194.30496-.07626.59009.44673.69981.84312-1.30507,3.5373-4.59688,5.00709-7.4527,6.72698-10.57672,6.37474-22.00737,9.28691-34.41384,7.81559-4.35446-.51844-4.33008-.46809-2.58734,3.71411,4.00688,9.60713,9.32805,18.29483,17.40286,25.07513,1.72589,1.44843,3.59667,2.68957,5.66418,3.57694,8.47887,3.63943,16.97134.26224,21.11241-8.28368.76235-1.57499.77454-3.72328,2.94265-4.37893,2.69418,4.91259.73797,9.38146-1.67564,13.55608-2.10101,3.63487-4.81343,6.89313-4.47497,11.47024.24549,3.31926,1.07038,6.47995,2.29011,9.54306.6343,1.59025,1.29446,3.1592,1.7016,4.82874,1.51706,6.22068-1.62687,9.59643-8.60237,8.55202,1.64214,1.40725,2.47614,2.97615,1.78387,4.60302-2.14978,5.05743-1.98971,10.55541-3.07377,15.80958-.97732,4.73107-2.84196,7.67986-7.65697,8.49246-8.03358,1.75651-16.00779,3.71877-22.31995,6.72851,7.36113-1.12826,15.50453-4.29351,23.77606-7.00592,6.61107,1.65274,8.06252,7.50603,3.16069,12.69914-.10981.22874-.58097.46809-.51081.46809,3.30558-.03964,6.40373-1.1451,9.57354-1.92876,2.68804-.60991,5.31661-1.44848,8.03824-1.87841,1.31577.00614,2.92887-.1113,3.36802,1.35998.51071,1.7123-1.08861,2.52034-2.29923,3.2476-3.03878,1.83272-6.26042,3.34066-9.34033,5.10015-.96205.55045-2.28239.92548-1.58565,2.61787,1.78843,4.33929-.20585,8.02753-2.57981,11.29952-2.09189,2.88169-3.52967,5.78321-3.61193,9.35252-.03359,1.44838-.30803,2.903-.97127,4.19896-1.10844,2.16206-1.02459,4.20203-.02438,6.41136,1.07494,2.37694,1.42102,4.97815-.67394,6.97698-2.10864,2.01102-4.76774,2.01261-7.39017.99714-3.34522-1.29753-6.37172-3.08596-8.73498-5.87618-1.88149-2.21994-4.06486-4.09687-6.62019-5.51789-7.87203-7.66004-13.92204-16.75023-19.47949-24.63445,5.83951,9.89832,12.11361,21.01181,19.79654,31.2364.9011,1.19843,2.16057,2.45176,1.2564,4.25544l.00307-.00307Z"/>
  <path class="cls-2" d="M176.88866,125.64711c-5.1611-2.15899-10.74302-2.71702-16.27153-3.95812.89645-1.96226,3.17893-1.03832,3.97943-2.56147,9.79921-1.06884,19.545-1.02157,29.17801,1.38138.98653,1.32187,2.46246,1.98818,3.87278,2.63006,27.49781,12.51316,45.35349,34.1059,57.53885,61.03348,5.55447,12.27684,10.12548,24.93638,12.97823,38.09752,5.40045,24.90893,8.53518,50.09229,8.71059,75.64463.21339,30.83084-1.62687,61.44825-9.09791,91.46333-3.46713,13.92502-7.08065,27.91565-15.62811,39.92261-2.15285,3.02342-4.41392,5.91117-7.28957,8.2882-6.70562,5.54684-12.70221,11.91241-19.71735,17.10246-.72875.53826-1.29595,1.34937-2.3358,1.34174l-.09148-.07007c-2.07356-1.6467-4.47348-2.78258-6.65983-4.25237-.87979-.59158-1.8236-1.2564-1.5903-2.49596.27443-1.45909,1.55829-1.62687,2.73838-1.82044,1.18465-.19524,2.35414-.07929,3.53116.16769,5.17785,1.09773,8.89355-.23637,11.61053-4.93543,2.09952-3.63334,4.82115-6.34278,8.13734-8.87522,6.79095-5.19163,11.98714-11.54194,14.50897-20.12756,1.68783-5.74198,4.63504-11.14848,6.89313-16.75637.51993-1.29288,2.15899-2.88625-.78524-3.50063-.75928-.15857-.9453-1.10853-.60833-1.62994,1.59328-2.47.34916-4.79817-.09148-7.2194-.56869-3.13779-.66017-6.29094.89496-9.27165.54896-1.05055,1.0567-2.2017.71665-3.41381-2.20012-7.82317-.62974-15.74853-.34916-23.57477.51081-14.21472.27136-28.40356-.51229-42.56947-.43301-7.85677-2.01261-15.67082-2.09952-23.55654-.07929-7.10964-.78524-14.21779-1.50636-21.2024-.72885-7.05324.36591-13.88082.07007-20.78461-.20576-4.75094-3.24909-8.68468-5.15189-12.92179-.36749-.08994-.68613-.25768-.9789-.48945-1.26394-2.87555-3.73394-4.7113-5.88837-6.82297-7.07758-25.6911-17.48363-49.702-35.59393-69.73798-8.47124-9.37076-18.07224-17.33273-29.84441-22.34438-1.22579-.52146-2.32203-1.235-3.26892-2.17574l.00158-.00456Z"/>
  <path class="cls-9" d="M222.80479,456.03143c.63727-1.32648,1.60398-2.27634,2.80241-3.18665,7.88264-5.9737,15.37955-12.50241,22.0806-19.69594,7.82169-8.39493,11.76296-19.077,15.16458-29.98921,6.7635-21.69031,10.12548-43.93256,11.83927-66.4888,1.61161-21.22683,1.70458-42.48106.03043-63.68499-1.17553-14.89014-3.67605-29.6065-6.54397-44.31978-3.86199-19.81185-10.48227-38.45277-20.04818-56.02942-8.63438-15.86444-20.1229-29.32141-35.26766-39.68321-6.13544-4.199-12.92025-6.93585-19.16085-10.77499-1.35849-.83405-1.15264-1.16032.06859-1.66954,15.07775,2.41356,28.0879,9.21372,39.68931,18.89247,16.31573,13.61094,27.09532,31.10984,34.53584,50.6976,10.02488,26.38937,15.56101,53.83232,18.16371,81.9111,4.27219,46.05489,1.59477,91.51517-11.80726,136.00422-5.11532,16.9759-11.49011,33.54326-22.92838,47.40118-9.36155,11.34065-4.58013,10.23529-18.65916,5.24951-3.44889-1.22132-6.94953-2.42728-9.96085-4.63504l.00158.00149Z"/>
  <path class="cls-2" d="M252.68875,226.75256c.08385-.1006.16928-.20124.25461-.30189,2.42886,4.82874,6.13842,9.18632,5.79996,15.05333-.2333,4.0496-1.42866,8.21351-.80348,12.10146.99714,6.18723.32469,12.43239,1.35393,18.53572,1.18158,7.00443.47414,14.10798,1.67713,21.11548,1.81746,10.58747,1.27771,21.38382,2.29318,32.06886.7013,7.38263-.66026,14.939-.60387,22.41301.05035,6.67668-2.15583,13.60638-.10209,19.91557,1.89061,5.8075-3.03878,10.34957-1.23202,15.69977.28365.84005-.067,2.02629.40714,2.64532,1.87237,2.45017,1.61468,4.48111-.97583,6.14149,1.20299,1.48347,2.20626-1.31587,3.04632.16165.6785,1.18921.46353,2.42877-.12647,3.76288-3.22322,7.2865-6.40224,14.57309-9.13755,22.08824-2.85573,7.84458-8.95302,13.56981-15.78668,18.21862-1.73659,1.18158-2.91519,2.37694-3.85594,4.17913-1.3905,2.66216-2.92283,5.14742-5.6962,6.88708-2.87099,1.80062-5.43861,3.09508-8.66034,1.14352-.42994-.26075-1.06423-.52607-1.48505-.39644-1.32489.40407-3.43968-.41477-3.87576.98346-.45739,1.46216,1.47742,2.17267,2.62708,3.00816,1.67108,1.21518,3.95961,1.63599,4.90798,3.78279-11.89259-5.36537-21.95563-13.37615-31.5474-22.01658-3.85296-3.47169-7.38868-7.2972-11.06929-10.95948-1.51399-3.68824-4.08161-6.73-6.42048-9.8556-6.23753-8.33398-10.8131-17.66668-16.28679-26.45805-.52141-.83549-.53826-1.98515-.47116-3.21103,7.18283,9.50188,13.96317,19.29197,22.01658,28.06966,7.57619,7.09898,15.07775,14.29707,24.14961,19.53588,4.97508,2.87248,10.29475,4.70213,16.09471,4.93999,8.98503.41477,17.28392-1.39199,24.44842-7.21335,4.27834-3.47774,7.08986-7.84756,8.087-13.22214,5.23583-28.18701,8.91188-56.51426,8.66788-85.28829-.20278-23.80352-2.55533-47.39811-5.77092-70.92719-.69525-5.08791-2.14829-10.0508-1.07801-15.23782,1.00328-5.23578,1.46225-10.4289-.99258-15.45274-.29118-.59619-.15857-1.2899.14182-1.90894l.00456-.00154Z"/>
  <path class="cls-9" d="M46.26353,336.99552c-1.46067-2.21073-.98188-4.24018.72429-6.07439-1.19694-1.30814-2.80855-.87058-4.08012-1.45299-2.00349-.91483-3.17139-2.39988-3.12719-4.58934.04123-1.97599,1.30368-3.0646,3.18358-3.44731,1.38138-.28206,2.26722-.51685,1.9135-2.5081-.74708-4.20817,2.23828-6.58976,6.40978-5.37305.86146.25159,1.67415.75318,2.44105,1.2457,3.30707,2.12084,5.84109,1.48198,7.59909-1.91657,1.91499-3.70346,4.83176-5.31814,7.87203-4.3606,2.86941.90566,4.47497,4.24014,3.92601,8.1647-.03806.25922-.02438.55803-.14936.77305-3.26287,5.63678.47107,8.42546,4.41551,11.35131,8.59166,6.37628,18.14082,10.1118,28.84262,10.30545,3.36654.06095,5.37914,1.03064,6.50889,4.15475.62211,1.71835,1.5461,3.32838,2.33283,4.98727-.20585,2.6698-2.52639,1.82202-3.83463,1.97296-8.97284,1.03836-17.84042.57325-26.64557-1.8129-7.54111-2.04453-14.25129-5.39738-20.00853-10.65303-1.88753-1.72282-3.98399-2.46237-6.53327-1.83412-3.30251.81418-6.59125,1.99883-10.01883.3674-.59763-.28514-1.11756.59921-1.77167.70139v-.00158Z"/>
  <path class="cls-6" d="M46.26511,336.99403c.14331-1.00328.28355-2.00805.50922-3.61045,2.82977,3.9825,6.29848,2.99597,9.67414,1.83421,3.60291-1.24114,6.38698-.51844,9.30674,2.09338,11.69744,10.45789,25.92742,12.93849,41.01122,12.30271,2.80846-.11735,5.69778.03201,8.31416-1.36156,2.07812,3.47635,4.1273,6.96944,6.24516,10.42131,1.32955,2.16662.24391,2.62708-1.73054,2.91519-22.71797,3.30865-41.75831-3.61659-57.09523-20.60775-1.6909-1.87385-2.92431-2.38615-5.30739-1.37375-4.13195,1.75185-7.91772.9118-10.92598-2.61182l-.00149-.00149Z"/>
  <path class="cls-6" d="M348.60877,253.97598c1.40269,3.46867-.62052,7.19046-4.76011,8.55812-1.10081.36289-2.34651.64951-3.46862.51229-3.14552-.38271-4.24939.99867-4.93394,3.99776-4.66249,20.40799-17.43487,33.87106-36.39294,41.97784-2.9808,1.27464-3.90014.66631-3.60281-2.55845.27294-2.97159.15401-5.98133.20734-8.97279,4.17616-2.45632,8.67551-4.25847,12.64433-7.18744,8.70445-6.42048,14.77884-14.94044,19.84996-24.20451,2.30072-4.20356,4.7723-7.46643,9.84341-7.99701,3.89102-.40709,7.07609-2.73833,10.6119-4.12581h.00149Z"/>
  <path class="cls-9" d="M295.61654,294.16842c-1.11309-4.11972-.48335-6.69799,3.9383-9.24876,10.6454-6.14912,17.16499-15.94833,20.76781-27.68081.82032-2.66975.99714-5.08945-1.47593-7.06697-.58851-.47265-.9682-1.22737-1.3798-1.89214-1.66345-2.68194-2.30379-5.50873.25768-7.88422,2.5813-2.3968,5.50412-1.99427,8.28056-.05793.10823.07473.23023.12963.32785.2165,1.46067,1.28074,3.00211,3.68522,4.35148,3.58001,1.90736-.14945,1.37673-3.2598,2.51727-4.84395,1.72747-2.39988,3.97636-3.52511,6.78788-2.73987,2.59349.72419,2.58893,2.9701,2.28555,5.17176-2.86792,1.26394-4.75099,3.30093-5.74356,6.36865-.67543,2.08729-2.43342,3.42749-4.6503,3.85747-2.36633.45739-3.45187,1.73357-3.90628,4.18067-3.18963,17.17723-13.08795,29.41745-28.1992,37.71942-2.29923,1.26399-2.30835,1.24719-4.16089.32171l.00158-.00154Z"/>
  <path class="cls-18" d="M122.90684,119.54987c.00912-.16318.03201-.32478.07315-.48182-1.79755-2.11474-3.32075-4.3713-4.47953-6.93431-1.58416-3.49612-4.68231-5.68559-7.77441-7.68293-10.5676-6.82757-21.37921-13.14132-34.23395-14.67062-1.03985-.12349-2.10101-.39336-2.96247-1.04134-1.42707-1.0734-1.02003-1.93332.39792-2.60721,12.9142-.56874,25.31453,1.83724,37.30316,6.5409,1.34025.52602,2.63164,1.18926,3.94751,1.78391,3.87269,1.75339,7.57461,4.24167,12.18071,2.78863,2.6027,1.5232,4.27219,3.70043,4.83791,6.71171.93767,4.97964,1.92411,9.95169,2.89081,14.92676-1.21062.47265-2.58437.7227-3.60133,1.46369-3.16832,2.30686-6.0073,2.58283-8.58096-.79892l.00149.00154Z"/>
  <path class="cls-2" d="M295.61803,294.16842c5.05585-.95293,8.97433-4.12125,12.75256-7.17822,10.52647-8.51698,17.25033-19.40025,18.81467-33.05539.21041-1.84333,1.11765-2.26871,2.43501-2.41356,4.09529-.44525,6.42346-2.71395,7.18581-6.67361.61755-3.20643,3.07535-3.09057,5.4722-3.12867,2.50499-.23786,5.46597-2.82069,7.2865.84317,1.95919,3.94439-1.30209,5.89139-3.95356,8.23027.70288,1.32345,2.84512,1.43782,2.99606,3.18051-2.72312,3.72333-6.93743,4.5665-11.0129,5.24039-3.92918.64951-6.31225,2.67128-7.89641,6.14907-3.73086,8.19067-9.11922,15.31864-15.58996,21.40978-5.20987,4.90491-10.79635,9.7504-18.45034,10.71552-.17691-1.10388-.73945-2.20468-.03964-3.31926Z"/>
  <path class="cls-18" d="M159.097,112.91283c-.90417-11.95052-1.07949-23.90262-.08385-35.85771,1.52004-5.12453,5.34099-9.04905,7.26361-13.96317,3.2476-6.52871,8.26996-11.67306,13.22214-16.86311.71358-.74862,1.59328-1.37677,2.75662-1.26394,2.60112,1.36151,1.94709,3.16525.48186,4.82869-2.97317,3.37263-5.52701,7.04561-7.96965,10.79788-5.11839,7.86589-9.5217,16.06265-11.61053,25.33123-.53975,2.39685-.70437,4.66407.59772,6.87792,1.75641,2.99146.56562,6.45096,1.46672,9.58419-.28048,3.31777-.56413,6.63396-.84619,9.95015-1.75948.19366-3.51748.38578-5.27696.57786h-.00149Z"/>
  <path class="cls-18" d="M154.28199,113.48613c-2.60568.55501-5.21145,1.10997-7.81554,1.66498-1.50952-.30649-1.32955-1.37375-1.00328-2.39834.55194-1.7351.71963-3.53884,1.06423-5.31205.82637-4.90644,2.83135-9.51868,3.52204-14.47542.2668-1.91503,1.04441-3.96119,3.8377-3.22169.35214,7.28496-.07929,14.59742.77296,21.86564-.12498.62662-.25154,1.25175-.3781,1.87688h0Z"/>
  <path class="cls-8" d="M42.48381,64.42913c16.63446-.29123,32.36624,3.98859,47.81595,9.57051,2.64532.95596,5.54377,1.50943,7.65697,3.63943-1.34174,3.30856-4.11818,3.67754-7.15994,3.48393-7.4862-.47419-14.90085-1.73817-22.43125-1.8022-13.38537-.11437-26.38183,1.7854-37.97859,6.41285,6.82148-1.79303,14.50283-3.93978,21.58655,2.07207.82181.76081,1.48663,1.63446,1.94709,2.65751,1.23193,3.27962-.44064,5.57736-2.6804,7.59909-5.06199,4.56496-11.20506,7.21182-17.3983,9.80228-4.92482,2.05681-9.92121,3.16525-15.31403,2.72768-4.63355-.37359-7.53962-2.86034-9.2991-6.83064-2.35721-5.3227,1.52469-11.24918,7.56093-11.78892,1.86315,1.72747,1.09783,4.22492,1.82965,6.29239.91478,2.59656,1.58258,6.25125,4.94306,5.60021,3.65316-.70591,2.5035-4.47041,2.03085-7.00899-1.08247-5.82132-2.77337-11.51602-4.17765-17.27173-.42538-1.7412-1.48812-3.04329-2.63006-4.32556-.19217-2.59656,1.7244-3.827,3.52809-4.78146,5.3502-2.83591,10.78574-5.55596,17.10553-5.36844,1.08257.03201,2.07365-.32017,3.06623-.67999h-.00158Z"/>
  <path class="cls-8" d="M47.18752,34.71282c-.3781-4.68687,1.58416-8.75782,3.66535-12.68239,2.46544-4.64727,5.59867-8.87066,9.41348-12.565,2.70479-2.61787,5.63673-3.34518,9.34787-2.37089,9.86175,2.592,17.70325,8.47729,25.16359,14.99535,5.42939,4.74182,10.25967,10.06755,14.6065,15.82633-1.01696,1.24416-1.02003,1.25482-2.61173.81116-4.43998-1.23044-8.72893-2.86034-12.86544-4.88667-.61745-.22106-1.28376-.42538-1.74729-.86755-5.97984-5.73282-13.53463-8.76852-20.84868-12.22193-.84768-1.83877-1.7244-3.04939-3.53265-.72117-2.32212,2.98992-6.28787,4.40788-7.86291,8.15405-.78822,1.87995-2.6255,4.02977-.10367,5.54837,2.36633,1.42558,4.08319-.53212,5.60788-2.29923,1.60398-1.85864,1.59179-4.85005,4.2386-5.95397,5.55754,1.32801,9.81754,4.92934,14.08815,8.3599,4.29509,3.45038,8.60385,6.94804,12.03293,11.35289,1.88456,2.42123,4.1273,4.87597,2.16197,8.10831-1.91955,3.15613-5.17022,2.60572-8.20435,2.08882-6.90988-1.17246-13.53166-3.4092-20.06949-5.82281-5.17795-1.90889-10.50209-3.50375-15.40253-6.10789-3.57536-1.89824-6.58203-4.32254-7.07916-8.74414l.00158-.00154Z"/>
  <path class="cls-8" d="M127.09825,17.53108c10.61339-4.84549,22.5715.54431,26.59671,11.8865,2.28555,6.43877,2.43193,13.07427,2.22609,19.77072-3.61659-1.51706-1.04748-4.46585-1.70765-6.45859-.58395,6.09114-1.52469,12.29815-5.05743,17.91515-1.43629,2.2855-.77603,5.38366-1.13133,8.10375-.45283,3.48849-.02289,7.09438-1.37831,10.47003-.96056,1.33564-2.05988,2.61945-3.88953,1.88149-1.74729-.70591-2.4364-2.38308-2.70935-4.11208-1.09625-6.91147-1.05818-13.89608-.77761-20.84412.30189-7.4588.46809-14.94654,1.16641-19.81185-.86602,12.68239-2.4471,27.89429-.10218,43.16863.41933,2.72619.69376,5.5057.08385,8.25469-.3003,1.357-1.05204,2.51271-2.47605,2.81157-1.64521.34153-2.25354-1.07038-2.92441-2.16355-1.28376-2.0858-1.12826-4.57562-1.80369-6.82455-5.93108-19.74173-6.13079-39.9851-5.3288-60.31232.05491-1.38441-.122-2.57366-.78524-3.73547h-.00149Z"/>
  <path class="cls-18" d="M165.22164,102.3818c-1.48961-1.08713-1.28683-2.72768-1.41944-4.26917-.10069-1.16637.08226-2.51266-.44064-3.4595-3.72333-6.72544-.47423-12.73883,1.98515-18.67596,4.13344-9.96997,9.72755-19.11814,16.953-27.18378,1.37226-1.53079.82032-2.51118-.21646-3.67754-.73797-2.01107.93618-2.8253,2.0141-3.83309,4.82106-4.50242,10.1011-8.41173,15.71196-11.87431,1.25482-.77458,2.78714-1.48505,2.17267-3.25677-.60219-1.7351-2.3144-.96056-3.46099-.81572-9.50188,1.19387-16.53991,6.36102-21.85345,14.05158-4.34999,6.29243-7.52892,13.24042-10.93966,20.05734-.96364,1.92722.17076,2.93353,1.19079,4.12279-2.03699,4.84549-4.83791,9.2442-7.90711,13.48438.41775-9.94252-.6007-20.42479,3.54186-29.48147,5.896-12.89126,16.12672-21.7528,30.3018-25.73684,9.26551-2.60419,16.17242,1.62534,20.23727,7.56554,3.09964,4.52834,3.4153,9.21372.61438,14.10798-2.81609,4.92171-6.94041,8.56575-11.21716,12.09086-7.2087,5.94169-14.95268,11.23391-21.69329,17.74587-8.29285,8.01074-13.72382,17.56752-15.57628,29.03781h.00149Z"/>
  <path class="cls-8" d="M16.64023,92.17397c-3.04325,1.73966-6.58362,3.17897-6.99987,7.24839-.53817,5.2785,3.76148,10.04317,9.05519,10.11026,12.68853.16313,23.13572-5.47062,32.73057-13.07427,1.88149-1.48961,2.53867-3.62724,1.66345-6.03475,3.10736-1.98208,6.40373-.45432,9.57354-.36591,8.33705.23023,16.47737,1.75036,24.16487,5.12448,5.07726,2.22758,5.62612,4.68692,1.71993,8.49711-1.7687,1.72598-2.56762,4.81194-5.83197,4.73117-14.85971,1.67103-29.18871,5.85021-43.69926,9.18627-7.13863,1.64055-14.33365,2.16965-21.26335-1.20145-7.30483-3.55712-11.47792-10.45635-11.0678-18.42442,1.07642-4.16699,5.46755-7.22401,9.99743-6.96177.19971.39644.18603.7837-.0442,1.16488h.00149Z"/>
  <path class="cls-3" d="M47.18752,34.71282c2.16504,4.89732,6.15973,7.76832,10.98386,9.52175,10.34966,3.76292,20.54828,8.01986,31.43769,10.10868.89803.17384,1.84026.12354,2.73075.32175,2.20468.49094,4.04494-.20129,5.08023-2.08277.99109-1.80215.14787-3.60281-1.08713-5.06655-7.51673-8.91793-16.16479-16.44076-26.74002-21.57133-2.04155-2.71549-.82795-4.29965,1.86929-5.36542,6.71009,1.52776,12.51004,4.8775,17.97154,8.9271,1.55215,1.15115,2.66207,2.91827,4.69757,3.40464,1.66493,1.28986,3.43968,2.47302,4.37279,4.47497,5.37458,6.30458,10.50367,12.79523,15.20124,19.62433,1.64055,2.38615,3.2369,4.78598,4.28587,7.51366.79585,2.07207.09297,3.01589-2.06295,2.95642-2.39071-.06556-4.66249-.73797-6.93427-1.40427-10.45333-3.06767-20.95691-5.97068-32.00945-9.8556,2.04462,2.37242,3.9597,3.74464,5.39292,5.55447,1.16483,1.46825,1.14045,1.48659.27136,3.34518-9.7779-3.74924-18.88186-8.75633-27.02981-15.3064-4.728-3.80108-9.09633-8.13274-8.43151-15.09753v-.00307Z"/>
  <path class="cls-8" d="M51.68231,88.37596c-8.41476-5.99511-17.08878-2.76732-25.85428-.6785,3.01589-3.22169,7.12188-4.09989,10.90923-5.29371,17.66203-5.56973,35.69462-4.7662,53.71651-2.3587,3.1713.42384,5.21294-.96364,7.50147-2.40597,11.08297,4.61521,20.61538,11.55413,29.40526,19.60754-3.55712,3.27506-6.87033,1.02157-10.02032-.64342-13.52858-7.14928-28.10316-9.54762-43.17775-9.79767-4.47199.94684-9.02625.75016-13.54236.83554-3.01133.05793-5.94783.65105-8.93775.73336v.00154Z"/>
  <path class="cls-18" d="M127.09825,17.52954c1.16176.36289,2.10557.35833,1.98515,2.37089-.95452,15.96206-.50169,31.92406,1.68327,47.75649.89496,6.48451,3.0036,12.80895,4.70055,19.16843.32934,1.23807.79901,3.1927,2.45781,2.93502,1.64977-.25764,1.75958-2.11776,1.66959-3.59672-.53668-8.73958-1.26245-17.47149-1.1237-26.23848.14787-9.42413.9788-18.79945,2.01866-28.8609,1.22132,1.95161.59158,3.34667.51229,4.63811-.72419,11.90176-1.65582,23.78825-.78515,35.73273.13568,1.86013.37959,3.6486.84768,5.41571,1.15729,4.36977,1.87385,4.58474,5.2831,1.72901.73489.50313.97276,1.27613.86909,2.07203-1.19238,9.04296.49703,18.08899-.07473,27.12887.80655,2.55389-1.76255,4.79668-.67701,7.37342-4.15019,1.21825-6.7086-.24242-7.67837-4.38196-4.83474-20.64892-9.72904-41.28566-14.46477-61.95743-1.37831-6.02102-2.75811-12.08625-2.93651-18.29483-.14787-5.16259.77454-9.99589,5.71304-12.98884v-.00154Z"/>
  <path class="cls-18" d="M82.65191,65.11675c.53053-2.44561-1.71686-3.20643-2.86336-4.6-1.29149-1.5689-3.40776-2.48526-3.8819-5.36081,14.04088,3.82085,27.42308,9.0719,42.19737,11.78436-4.43989-9.37839-10.39228-16.67713-16.27916-24.02765-1.39199-1.73664-3.18805-3.16222-4.09985-5.2724,1.97901-.80655,2.90915.80199,3.91084,1.87078,5.93257,6.31528,11.83006,12.66564,17.4089,19.30263.40863.48638.64044,1.17404,1.32043,1.25943-1.20299-1.09778-1.75641-2.23674-.07473-3.47937,2.88169,10.75977,4.22343,21.86108,8.0092,33.5219-4.54812-3.1866-8.11287-5.76334-11.75384-8.22115-10.53866-7.11727-22.17515-12.03134-33.89391-16.77619v-.00154Z"/>
  <path class="cls-3" d="M51.68231,88.37749c.97732-.93618,2.14829-1.65279,3.48091-1.6299,6.33356.1113,12.67318-1.10848,19.00069.05793-1.80527.91175-.59921,1.26245.32478,1.52623,3.65316,1.04595,7.45112,1.3463,11.12568,2.42426,11.14551,3.27352,20.78158,9.24727,29.92518,16.15567,4.04494,3.05548,5.4065,7.82927,7.44042,12.15637-11.34521-9.2991-24.4957-11.87128-38.74093-10.40452-.49247.05183-1.01082-.16313-1.51855-.25461,2.30835-2.45325,4.81957-4.74945,6.86875-7.4024,2.05225-2.65602-.49406-3.76144-2.32064-4.55728-5.90968-2.57218-12.0923-4.28443-18.52348-4.8882-5.2068-.48787-10.43341-.76537-15.651-1.13435-.47107-.6846-.94065-1.36766-1.41181-2.05071v.00154Z"/>
  <path class="cls-18" d="M147.14187,107.77923c-1.88456-9.68944-1.78694-19.43226-.79436-29.20248.3781-5.35927.84619-10.71706,1.09317-16.08401.1113-2.42119,1.73966-3.95198,2.73987-5.86701,1.98823-3.80564,2.14978-8.08695,2.9808-12.18685.2333-1.14813.05025-2.36786,1.37831-3.23695,1.50794,2.51881-.84926,5.69931,1.38138,7.98328-.6785,13.51947-1.357,27.03893-2.03699,40.5584-2.09804.46809-2.84056,1.86166-3.03115,3.91996-.45125,4.89732-2.31598,9.45005-3.71263,14.11565h.00158Z"/>
  <path class="cls-18" d="M120.28739,56.59372c-.79436,1.40576.47116,2.7978-.06244,4.78142-4.24939-4.68077-8.23487-9.12527-12.28149-13.51486-3.26733-3.5434-5.95388-7.67377-10.21844-10.22003-1.19843-1.57806-2.39685-3.15459-3.59221-4.73112,4.38508,2.22302,9.07651,3.64553,13.6933,5.26477.61596.2165,1.17404.6617,1.55978-.25768,5.37607,5.20987,9.10852,11.37727,10.90309,18.67903l-.00158-.00154Z"/>
  <path class="cls-8" d="M16.58691,91.45736c-4.138.89803-7.63715,2.76732-9.89832,6.51657-.79743-8.54439,1.7244-16.17856,6.37777-23.2272,2.08277-.21804,4.2051-.58246,5.70234,1.47132-.22102,4.52225-.92548,9.01397-.93311,13.55757-.00149.75318-.2226,1.57499-1.24868,1.6802v.00154Z"/>
  <path class="cls-3" d="M18.46076,76.25463c-1.58416-1.27464-3.87427-.01522-5.39589-1.50943,1.98664-4.14717,5.2282-7.03491,9.5888-8.18606,6.46776-1.70765,13.06049-2.9198,19.83014-2.13-.62667,1.53535-2.01866,1.49268-3.30549,1.52772-6.3412.16467-11.72797,3.11346-17.11772,5.95393-1.29753.6846-2.73689,1.64362-2.97773,3.43363.28048.63886.13568.98495-.62211.91175v-.00154Z"/>
  <path class="cls-2" d="M218.6774,436.69377c-8.04577.23172-14.59738-3.61352-20.98743-7.79126-6.58362-4.3057-11.80409-10.22756-17.74895-15.29412-.53509-.45748-.67692-1.37533-1.0017-2.0797,3.05395.91934,5.06348,3.2262,7.01206,5.50868,2.48377,2.90756,5.65209,4.60004,9.16342,5.85328,2.20626.78831,4.33771.37205,5.81671-1.16027,1.48347-1.53381,1.32341-3.86813.23479-5.55754-1.71677-2.66058-1.87693-4.96893-.02289-7.60206.61596-.87672.70595-2.25661.71209-3.40925.01824-4.13037,1.36147-7.56856,4.31482-10.5798,2.07821-2.11628,2.00042-5.32424,2.91519-8.03368.13577-.39941-.05332-1.23956-.3567-1.41181-4.41709-2.51578-.38583-3.2598.99555-4.09231,3.58001-2.15899,7.32465-4.04504,11.00675-6.03317.5779-.31417,1.36919-.69069,1.15422-1.36007-.26829-.834-1.30973-.6785-2.03848-.9011-.3553-.3674-.37968-.7562-.07622-1.16641,2.27327-1.74273,5.13207-2.1132,7.65083-3.27199.4895-.13717,1.02003-.09455,1.4455-.5229-5.72225,1.35998-11.6243,2.01717-17.03238,4.62126-3.45652.65263-6.3183,3.82244-10.25204,2.41062,3.19875-5.03305,2.55235-8.59325-2.12698-11.72034-.56264-.49247-1.91806.4452-1.92113-1.06116,3.89865-2.51727,4.69301-3.69439,6.47697-9.00336,1.66801-4.97201.79585-10.42429,3.17744-15.31859.89654-1.84491-1.14203-2.91827-2.7582-3.63948-.66631-.29574-1.13133-.80655-.78822-1.53074.40556-.8569,1.12212-.42696,1.67861-.14331,1.53391.78217,3.03878,1.61766,4.85773.96968,3.96417-1.41191,4.65793-2.95028,3.77814-7.22094-.72419-3.50836-2.52946-6.59278-3.4702-10.03861-1.72896-6.3351-.42082-11.75537,3.6044-16.69844,3.24304-3.9825,3.27962-8.60995,2.82372-13.35782-.78515-.71814-.47414-1.39971.0671-2.07514,3.28269-2.38461,2.02331-6.08049,2.21082-9.10089.48484-7.83388-.23786-15.63421-3.11034-23.05034-.64193-.34302-1.49575.50927-2.04462-.33846-3.95812,2.63011-9.23964,1.18619-13.07883,4.26-.5779.46348-1.54452.57478-2.03699-.35223-.39495-.74099.06403-1.21211.69367-1.5689,3.23848-1.83421,2.57218-2.53402-.65403-3.50985-2.30081-.69679-2.71549-2.80999-1.46523-5.18702,2.99755-5.70234,2.90607-6.44486-1.50031-10.95641-1.21369-1.24263-1.71221-2.21846-.74253-3.72486,4.20054-6.52718.80041-12.87451-.66175-19.18826-.40407-1.7412-1.21518-3.3482-1.2243-5.25714-.01526-2.96247-.7456-5.72216-3.39092-7.60211-2.3587-1.67564-2.191-3.39701.18444-4.87904,3.32689-2.0751,4.95228-5.73133,7.80345-8.27298,1.04283-.93158,2.07198-2.79324-.59465-3.56015-1.72142-.75932-3.57387-.66631-5.38826-.8508-.93925-.0945-2.22758.33851-2.43491-1.24565,3.1713-3.18512,1.56583-7.03189,1.33411-10.62409-.10069-1.56434-1.18623-2.98229-2.9031-3.35583-3.84216-.834-6.46776-4.90188-4.12581-7.63263,3.73403-4.35297,1.5796-8.60232,1.1009-12.93398-.21506-1.93327-.88435-3.78121-.76235-5.80754.189-3.1256-1.07801-5.70695-3.48398-7.76376-1.82202-1.55824-3.0921-3.53269-3.82392-5.83193,10.38009,3.25672,19.00832,9.35247,26.86509,16.66335,12.56346,11.68981,22.22243,25.51726,29.48147,40.9914,3.9932,8.51238,7.81713,17.12233,10.36334,26.23694.97583,3.49305,3.20489,6.65681,2.58586,10.54173-.90715,1.55973-2.40895,1.72901-3.98548,1.72138-11.15314-2.86341-21.23748,7.26668-18.47323,18.57229.21804.89193.39951,1.78694.42696,2.70479-.34618,3.13477,1.6909,4.82567,3.90163,6.40373,3.02957,2.64993,7.20572,2.7917,10.52349,4.80734-1.74273,2.95181-5.02691,2.32212-7.62049,3.31163-1.20755.462-3.2262-.80199-3.57387,1.42866-.31101,2.00042-1.65582,4.33166.27443,5.99967,3.54949,3.06921,3.31014,6.52876,1.77475,10.36334-.6007,1.50031-.84768,3.11495-.03201,4.60609,1.97296,3.60593,2.99457,7.58843,4.5711,11.35136.93311,2.22911,2.53402,3.5815,4.43375,4.84549,1.34788.89803,3.19884,1.66037,2.39378,3.94132-1.48654,1.50641-3.51292,1.72445-5.40808,2.13912-4.26456.93162-8.26074,2.58897-12.20974,4.36674-1.09317.49401-2.69716.63579-2.68655,2.4197.43608,1.59179,1.74432,1.37831,2.86643,1.29902,4.37586-.31408,8.82645-.05793,12.93403-2.20468,1.57802-.82335,3.40767-1.296,5.28608-.82944,1.30517,2.82981-1.51855,3.16678-2.78556,4.02368-1.93639,1.31121-2.52341,2.07356-.83103,4.16545,1.89526,2.34041,1.14808,5.79079-1.4347,8.04275-2.16504,1.88758-4.46892,3.65014-7.24993,4.61372-5.15803.93767-9.70922,3.23239-13.74811,6.48455-1.16948.94074-3.23244,1.70309-2.27643,3.99311.37512,1.50338,1.32499,2.06602,2.86336,2.04006,8.35082-.14024,15.25001-2.97922,19.74173-10.42131.3004-.29723.6557-.47563,1.07038-.54426,2.04769.34307,1.947,1.8632,1.7458,3.33448-.2226,1.61012-1.11151,2.93502-2.07058,4.21431-2.00805,2.68338-1.97901,5.26775.08999,7.75301,2.39676,2.8802,2.78556,10.56314.80962,13.71005-2.78566,4.43384-2.98694,9.45768-1.61012,14.14306,2.04918,6.97549,1.02459,14.18419,2.47158,21.15363.28206,1.35393-.10674,2.62243-1.23202,3.55712-2.88011,1.63441-6.16122,1.98971-9.29752,2.77188-3.1028.77454-5.80303,2.23214-8.34924,4.07705-1.11756.80804-2.05988,1.67861-1.21062,3.22164.712,3.00974,3.40004,2.35107,5.41879,2.91063,1.91043.53063,4.34841-.3888,5.5621,2.04918-1.35551,4.09687,1.2899,8.2318-.14182,12.347-.33697.96512-.30496,2.05681-.47116,3.08745-1.12668,7.0075-2.73373,8.40108-9.9669,8.63745h.00456Z"/>
  <path class="cls-9" d="M110.7855,171.48093c-2.97317,10.98847-5.96151,21.97387-5.52394,33.52646.01833.48028-.26531.97122-.40863,1.4576-1.51399,1.32038-1.92569,3.06162-1.95621,4.97508-.33539,22.53041,3.59677,44.4677,10.04628,65.91099,2.81757,9.36318,6.28173,18.57839,9.74737,27.7708,5.96914,15.83089,13.07576,31.12659,20.1229,46.45895,3.49756,7.6097,7.60662,14.9404,11.45502,22.38705.51527.99565,1.8799,2.21538.61438,3.03264-1.38436.89347-1.83263-.94837-2.42579-1.84798-13.42641-20.38356-25.91979-41.31004-35.77847-63.67727-6.01642-13.65515-11.65166-27.42773-15.92534-41.8315-2.92897-9.87394-5.24039-19.82711-6.97093-29.86721-2.3694-13.73141-2.31449-27.63205.15699-41.45493,1.87851-10.50819,3.6593-21.02396,9.50346-30.27886.40248-.63886.86146-1.24263,1.3128-1.88758,2.25037,1.74273.94986,7.15235,6.03168,5.32117l-.00158.00461Z"/>
  <path class="cls-14" d="M214.04385,251.49226c.73192-.37354,1.46523-.74862,2.19863-1.12067,3.31619,8.20137,3.90935,16.76097,3.09359,25.43802-.27136,2.903.39792,6.13688-2.02173,8.57487-.7227.41928-.51229,1.0566-.39644,1.67261-.67999,1.67866-1.29297,3.38938-2.05067,5.03301-4.40183,9.56135-14.66299,12.99191-23.87517,7.75915-9.43023-5.35625-15.21492-13.9662-19.88811-23.40559-1.66652-3.365-3.51292-6.71627-4.08617-10.87712,17.8206,2.84354,33.70639-.61601,47.02457-13.07427h.00149Z"/>
  <path class="cls-16" d="M146.68746,253.02761c5.50719,4.32254,6.89016,10.01115,4.97964,16.46062-2.11469,7.13555-7.19046,11.20497-14.51195,12.09234-6.92217.8401-12.34849-2.19863-16.11453-7.82169-3.75227-5.60174-3.89865-11.65171-.42994-17.48368,3.54791-5.96612,9.05054-8.42546,15.9071-8.01683.25154,1.42712-.76086,2.46544-1.13738,3.6989-.87672,2.86336.40853,6.16131,2.73829,7.0639,2.59349,1.00477,5.86547-.44822,7.18739-3.20033.44985-.93614.53826-2.05071,1.38138-2.79324Z"/>
  <path class="cls-11" d="M146.68904,253.02914c.15699,3.68671-1.19079,6.39154-5.00709,7.30483-2.81618.67543-5.23276-.16011-6.78947-2.63471-2.23828-3.55861-1.28534-6.69948,1.62529-9.43781,5.87162-1.13594,7.9543-.15709,10.17126,4.76769Z"/>
  <path class="cls-9" d="M189.55272,179.59687c2.50052,1.10081,5.88688-1.10239,7.82317,2.09645-9.09167,3.66991-18.12556,7.51519-27.88354,9.36467,1.33252-4.88667,7.54725-8.41024,20.06037-11.46112Z"/>
  <path class="cls-17" d="M123.14619,225.83015c-.82181-4.92324,2.46237-9.90139,7.3186-11.09214,4.34534-1.06577,9.47136,1.78387,11.08604,6.13381.33539.90263.64947,1.82048-.22874,2.50815-.7456.58395-1.42707-.00154-2.1361-.36442-7.12029-3.6425-9.0887-3.04785-12.99954,3.91084-.39485.70135-.68306,1.53232-1.68783,1.12979-.94688-.37964-1.26701-1.26092-1.35086-2.22604h-.00158Z"/>
  <path class="cls-9" d="M197.53902,362.03869c.64044.35372,1.28227.70893,1.92113,1.06423-6.20086,2.47763-12.34849,5.08935-18.94281,6.45547-2.58278.5337-5.11839,1.07949-8.36748.7456,5.99818-3.68517,11.99328-6.09421,18.42744-7.08521,2.32519-.35837,4.64425-.75472,6.96023-1.18009h.00149Z"/>
  <path class="cls-15" d="M201.58564,374.82317c3.52967-1.1572,7.06083-2.31449,10.5905-3.4702,4.98271-1.99883,10.30536-2.73987,15.44059-4.17457.5565-.15709,1.37068-.40407,1.48347.53361.08999.7563-.72419.98346-1.20596,1.38296-2.61182,1.33867-5.3609,2.29309-8.2197,2.93046-2.79775,1.69388-6.30611,1.24868-9.08255,3.01123-4.03284,1.16027-8.1312,1.93788-12.5147,2.04918.55343-1.75948,2.19407-1.78079,3.51134-2.26108l-.00298-.00158Z"/>
  <path class="cls-2" d="M210.58891,375.03516c2.63015-2.2017,6.0729-1.95165,9.08265-3.01133.05788.244.11735.48484.17681.72726-3.08596.76086-6.1735,1.5232-9.25946,2.28406Z"/>
  <path class="cls-13" d="M223.33998,243.82152c-2.4807-10.09346.15094-17.71847,7.87808-21.90374,3.31005-1.7915,6.9084-3.11039,10.68961-.96512.13261,1.26092-.712,2.18947-1.11765,3.26743-1.20299,3.20187-.29267,6.0515,2.35265,7.35206,2.48526,1.22281,5.20531.30645,7.00592-2.38615.56571-.84773.8005-1.94551,1.86166-2.409.22418-.03355.45134-.04118.67701-.01982,3.16376,5.46755,3.48844,11.24001,1.85701,17.22446-1.41944,6.33812-6.08807,9.11615-11.80111,10.69724-1.5125.41779-3.09964.73489-4.44594-.53821-4.09845-.06556-7.70276-1.43475-10.82538-4.08314-1.47891-2.00954-4.04196-3.304-4.13186-6.23599Z"/>
  <path class="cls-5" d="M252.00876,226.77238c-.71814,2.56608-1.55522,5.06655-4.39113,6.07895-2.93353,1.04902-5.45992.41779-7.32009-2.13303-2.32668-3.18814-1.79606-6.1796,1.60556-9.7672,1.42707-.29123,2.85266-.58242,4.27824-.87058,3.39855.96512,5.22513,3.29483,5.82741,6.69185Z"/>
  <path class="cls-2" d="M238.29722,254.14219c7.45419-.1281,12.72659-3.74771,16.25012-10.16056-1.55512,8.90574,1.82816,17.33729,2.64997,26.01583,1.23193,13.00871,2.82977,25.98233,3.64553,39.03826,1.07949,17.29309.79278,34.57543-.32627,51.83805-.8676,13.37159-2.90915,26.62118-5.13672,39.83569-.93618,5.55754-1.48961,11.17603-2.98992,16.63595-2.66821,9.71229-9.5446,15.11423-18.68662,17.98225-4.85159,1.52162-9.84499,2.8374-15.02592,1.36612,7.75617-1.95007,7.94825-2.08733,9.08414-10.02944.46809-3.28576,1.69397-6.63089-.17532-9.90902-1.10844-1.94244.93767-3.06009,1.28683-4.6274,1.08098-1.80676,3.06009-1.78238,4.75397-2.23065,3.4824-.92092,6.43733-2.66672,8.90425-5.25872.97732-1.02608,1.70458-2.09338-.04579-3.10578.98495-2.39071.04123-3.08289-2.35404-3.05088-1.22132.01526-3.00369.68455-3.58616-1.34174,1.24877-.98644.92092-2.23065.77919-3.58765-.91031-8.68463-2.03094-17.34181-3.07535-26.0082-.42538-3.51897-.2775-7.70276,3.22629-10.41061,1.00011-.77147.87206-1.78535.61596-2.86643-.48028-2.03392-1.21062-4.01144-.92399-6.19174.19673-1.5018-.93618-2.27485-2.05532-3.0814-3.41074-2.45939-3.50519-3.68219-.67543-6.86726,1.39357-1.57039,2.92897-3.02957,3.33908-5.23425.26224-1.40269.53519-2.75057-1.63143-2.59963-.14787-1.97445-1.53232-1.79913-2.97466-1.91806-1.46067-.12042-3.3711,1.12067-4.31026-1.10388,2.99597-.81721,5.20987-2.95484,7.52278-4.78295,2.41974-1.91043,2.14531-5.5621-.39178-7.57466-2.24284-1.77935-1.44848-2.69567.65561-3.45955,2.12688-.773,3.70955-2.27941,5.29976-3.79038-.69218-1.44541.59772-2.00954,1.30973-2.75206.98653-1.0292,1.92727-2.00958,1.56741-3.58611-.76542-2.01107-3.07833-.05793-4.0374-1.56736-.24084-.97885-.89952-1.68327-1.78079-1.99125-5.37151-1.87539-6.45101-6.77574-8.05806-11.30562-.21953-.61903-.16313-1.41493-.53509-1.88912-3.44433-4.36516-2.81004-8.89657-.78524-13.58195.99407-2.3023-1.03985-3.23997-2.30686-4.4826-1.41339-1.38594-2.13005-8.23943-.98039-9.63454.52141-.63271,1.20755-.16616,1.82202-.17076,3.58755-.02592,6.98461-.80962,10.13767-2.55994h-.00149Z"/>
  <path class="cls-8" d="M166.92017,63.56768c-2.5813-.01219-4.01451-1.35546-2.69874-3.69127,3.92154-6.9633,6.94655-14.40991,11.5237-21.01791,4.97805-7.18892,11.51291-12.1198,20.06186-14.19033,1.37831-.3339,2.8588-.36442,4.28597-.3339,1.14045.02438,3.13779-1.5354,3.22015.33999.06551,1.4683.85224,3.78582-1.62687,5.01318-6.52266,3.23234-12.03293,7.93299-17.45013,12.72055-.87058.76691-1.97603,1.37677-2.15136,2.70786-5.88678,5.46755-11.03728,11.53887-15.16458,18.45183h0Z"/>
  <path class="cls-18" d="M18.45927,76.25314c.20734-.30342.41616-.60838.62201-.9118,1.35393-.24545,2.45176.1891,2.75662,1.55522,1.77475,7.91316,4.72968,15.56255,5.26635,23.75778.14331,2.19556-.47265,4.24321-2.46851,4.83935-2.28853.68157-4.15326-.57478-5.51175-2.74899-2.05681-3.29032-1.90438-6.99224-2.48219-10.57072-.00614-.24089-.02596-.48028-.05639-.71814.99863-5.02081-.43766-10.34198,1.87385-15.20269Z"/>
  <path class="cls-18" d="M71.4622,20.5759c-1.10695,1.62073-2.67287,3.0814-1.86929,5.3669-1.12677,2.04462-2.21231,4.11362-3.39092,6.12623-.88584,1.51706-2.14373,2.61331-3.90935,3.08294-3.43819.91175-5.58797-1.03529-4.60153-4.41858.81418-2.79324,2.29011-5.33033,4.54365-7.23466,2.07356-1.75036,4.70976-2.83898,5.80601-5.66274.35372-.91022,1.55364-.9514,2.46088-.6007,1.71984.66477,1.22886,2.05527.96056,3.34211v-.00149Z"/>
  <path class="cls-8" d="M211.54035,35.53463c1.19228,3.28422-.38117,6.03628-2.52946,8.45752-5.31363,5.9905-12.10151,10.034-19.06025,13.75118-2.98229,1.59333-6.38689-.74555-6.07895-4.13498.33548-3.68671.8005-7.20112,3.87278-10.19411,4.52988-4.4109,8.82338-9.03989,14.37934-12.164,4.11213-2.31142,8.19979-.41775,9.41496,4.28439h.00158Z"/>
  <path class="cls-9" d="M236.54527,397.14321c2.15294.22409,4.30728.45432,6.46171.67236.98644.1006,2.35563-.23786,2.53253,1.12826.15848,1.22737-1.30209.92855-1.98515,1.39813-.41319.28514-.77305.65105-1.15571.98039-4.69459,3.58606-10.43807,4.50698-15.88737,6.08817-2.66821.77454-5.41571,2.22906-8.3538.80804-2.66365-.6007-3.18963-1.4012-.85382-3.52055,5.50412-4.9949,12.55741-5.74496,19.24321-7.55479h-.00158Z"/>
  <path class="cls-2" d="M218.15598,408.21706c8.29127-1.55829,16.09462-4.83483,24.24267-6.8962.98188.03201,2.20468-1.02152,2.88616.04569.7563,1.18475-.46195,2.18644-1.1237,3.0586-3.8269,5.04366-9.511,6.48293-15.28807,7.70276-3.28874-.49554-6.58213-.9682-9.86472-1.50031-1.65126-.26838-2.51578-.91785-.85382-2.41053h.00149Z"/>
  <path class="cls-9" d="M228.85629,327.27104c2.02322.74862,4.07854-.06403,6.11701.11284.8783.07626,2.02945-.2165,2.43045.69069.44064.99411-1.12984,1.28837-1.26096,2.21841l.01833.00307c-1.23965,1.86008-3.27199,2.48675-5.17785,3.28874-4.31491,1.81439-8.72437,3.37873-13.1368,4.9278-1.55978.54589-3.24612,1.08871-4.89886.11595-.51685.05481-1.19843.34758-1.52162.12498-1.06116-.73341-.03201-1.37524.36135-1.84491,3.54186-4.21273,8.11445-6.90076,13.26178-8.66481,1.235-.42538,2.5356-.65407,3.80717-.97276Z"/>
  <path class="cls-4" d="M217.01395,191.77916c3.45801.91939,5.2831,3.55559,6.71325,6.53025.37205.77607.73648,1.85101-.37047,2.43952-.82795.44064-1.38901-.23177-2.04769-.69223-5.09401-3.57387-8.92863-2.80082-12.04205,2.45934-.68911,1.16488-1.19535,2.36479-2.82828,2.26573-2.97773-2.63471-1.24877-5.36695-.16621-8.08393.79129-.97127,1.58416-1.94249,2.37545-2.91371,2.3587-2.46237,5.09857-3.33755,8.36599-2.00498h0Z"/>
  <path class="cls-2" d="M245.15834,301.11343c1.91955,1.12063,1.06721,2.22906-.01833,3.32992-1.06116,1.07796-2.13005,2.14675-3.19577,3.22015-6.23446,1.88758-12.37902,4.17462-19.05867,3.95658-1.75343-.05793-4.0496.83703-3.41074-2.45627.76086-1.19079,1.96682-1.69546,3.25524-1.98367,6.5074-1.46062,12.74493-3.77056,19.01288-5.98896,1.12984-.39951,2.26266-.63886,3.41539-.07775Z"/>
  <path class="cls-2" d="M212.94761,338.62854c8.03973-1.9349,15.44664-5.63375,23.21352-8.331-1.05511,5.8732-6.17806,7.58085-10.50209,9.87552-3.24919,1.7244-7.10056,1.424-10.70952,1.62222-1.82658.10218-3.98092-.44827-2.0019-3.16674Z"/>
  <path class="cls-9" d="M245.15983,301.11343c-8.3203,3.45341-16.86925,6.17346-25.68351,8.05038-1.34323-1.89368.51537-2.191,1.48049-2.71549,6.21771-3.36807,13.01173-5.06655,19.82716-6.69189,1.43629-.07166,2.89993-.3507,4.29807-.16011,1.63302.22111-.14024,1.00021.07631,1.51557l.00149.00154Z"/>
  <path class="cls-2" d="M217.31435,284.38447c2.37852-11.42455,2.25503-22.76827-1.07335-34.01289,1.29446,1.78238,3.79033,10.30238,3.84831,13.40207.10367,5.45536.28048,10.91528.14331,16.36761-.0442,1.75948-.57483,3.77972-2.91975,4.24474l.00149-.00154Z"/>
  <path class="cls-9" d="M227.89266,369.09496c.50159-1.0124,1.13896-1.95007-.9453-1.39813-4.90193,1.29902-9.8449,2.4471-14.77121,3.65465,5.44922-3.03869,11.70052-3.3147,17.52327-5.06962,1.08564-.32627,1.88456.30347,1.63143,1.48198-.44213,2.05839-1.99883,1.63302-3.43968,1.32955l.00149.00158Z"/>
  <path class="cls-2" d="M206.274,196.69784c-.39941,2.70325-1.86622,5.43093.16621,8.08542-2.20319-.84926-2.29923-1.20908-2.0476-4.46581.11735-1.53996.51071-2.79631,1.88139-3.61961Z"/>
  <path class="cls-2" d="M217.01553,191.77762c-3.06921-.5001-5.81373.35223-8.36599,2.00498,2.49131-3.27352,4.79668-3.82546,8.36599-2.00498Z"/>
  <path class="cls-2" d="M223.34147,243.82152c1.37682,2.0797,2.75355,4.15782,4.13195,6.23599-2.29467-1.46979-4.71134-2.86182-4.13195-6.23599Z"/>
  <path class="cls-7" d="M195.27795,276.64817c-5.20382,1.04595-10.20932.94684-14.9725-1.66191-1.55364-.85075-3.33908-1.96687-2.82828-3.78735.42389-1.50943,2.45325-.92851,3.84831-.91939,9.89832.05337,18.81625-2.95637,26.95657-8.50623.7563-.51537,1.4683-1.88149,2.62094-1.05665.98653.70749.53826,2.04923.34004,2.95944-1.13133,5.20684-4.98885,8.17694-9.33112,10.52498-2.05225,1.11146-4.41402,1.65121-6.63545,2.45017l.00149-.00307Z"/>
  <path class="cls-12" d="M196.60442,287.45522c4.79212-1.09625,8.799-1.08103,12.63363.91483,1.53381.79892,2.1361,1.66037,1.01082,3.3985-4.14256,6.39764-15.36884,7.62044-20.74343,2.27029-1.2457-1.23956-.34758-1.83724.3111-2.56757,2.01717-2.22911,4.68687-3.33452,6.78788-4.01451v-.00154Z"/>
</svg>