<?xml version="1.0" encoding="UTF-8"?>
<svg id="Ebene_1" data-name="Ebene 1" xmlns="http://www.w3.org/2000/svg" viewBox="0 0 1039.14984 853.04565">
  <defs>
    <style>
      .cls-1 {
        fill: #31061d;
      }

      .cls-2 {
        fill: #ff8382;
      }

      .cls-3 {
        fill: #92eb9f;
      }

      .cls-4 {
        fill: #2e0a19;
      }

      .cls-5 {
        fill: #fbfbfa;
      }

      .cls-6 {
        fill: #ff6b6a;
      }

      .cls-7 {
        fill: #fbfbfc;
      }

      .cls-8 {
        fill: #c3ebc9;
      }

      .cls-9 {
        fill: #ff7271;
      }

      .cls-10 {
        fill: #310f1e;
      }

      .cls-11 {
        fill: #fcfbfa;
      }

      .cls-12 {
        fill: #fb5d6a;
      }

      .cls-13 {
        fill: #2e051b;
      }

      .cls-14 {
        fill: #2f041d;
      }

      .cls-15 {
        fill: #f96918;
      }

      .cls-16 {
        fill: #2e051a;
      }

      .cls-17 {
        fill: #2d0912;
      }

      .cls-18 {
        fill: #75db85;
      }
    </style>
  </defs>
  <path class="cls-1" d="M26.78757,459.59902v-186.60438h56.78117v13.32861h-42.65271v39.98571h49.31701v13.33074h-49.31701v106.63077h42.65271v13.32855H26.78757ZM95.61924,429.74234c0-14.12846,7.73154-19.99285,14.12846-19.99285,3.73211,0,6.93163,2.13228,7.73154,5.597-5.06667,0-8.26407,6.13178-8.26407,12.53089,0,11.72879,9.32911,22.12514,26.12457,22.12514,15.99342,0,26.12464-12.2635,26.12464-24.25961,0-30.9218-57.8484-35.45375-57.8484-74.64174,0-18.39309,12.79602-27.45707,27.19181-27.45707,19.99285,0,26.65716,11.46365,26.65716,20.79277,0,7.73154-4.53196,10.66374-8.52927,10.66374-3.46691,0-6.93163-2.13235-6.93163-5.06455,6.66431-1.59976,4.53196-15.72822-10.39635-15.72822-8.26407,0-15.46309,6.13178-15.46309,17.59318,0,27.19187,58.64832,35.72114,58.64832,73.04198,0,21.32748-15.99554,37.32309-39.72051,37.32309-25.85725,0-39.45319-14.66317-39.45319-32.52374ZM182.82882,429.74234c0-14.12846,7.73154-19.99285,14.13058-19.99285,3.73211,0,6.92951,2.13228,7.72942,5.597-5.06455,0-8.26407,6.13178-8.26407,12.53089,0,11.72879,9.3313,22.12514,26.12457,22.12514,15.99561,0,26.12464-12.2635,26.12464-24.25961,0-30.9218-57.84628-35.45375-57.84628-74.64174,0-18.39309,12.79602-27.45707,27.18969-27.45707,19.99504,0,26.65928,11.46365,26.65928,20.79277,0,7.73154-4.53196,10.66374-8.53139,10.66374-3.46472,0-6.93163-2.13235-6.93163-5.06455,6.66431-1.59976,4.53196-15.72822-10.39635-15.72822-8.26407,0-15.4609,6.13178-15.4609,17.59318,0,27.19187,58.64613,35.72114,58.64613,73.04198,0,21.32748-15.99342,37.32309-39.71839,37.32309-25.85937,0-39.45531-14.66317-39.45531-32.52374ZM341.75006,428.4099c6.13178,0,8.79659,4.26463,8.79659,9.06398,0,11.72879-11.99611,24.7922-35.45369,24.7922-35.18862,0-42.38757-34.3887-42.38757-55.71619,0-21.06009,3.99943-82.9058,42.38757-82.9058,23.45758,0,34.65384,23.45976,31.72164,58.91352l-1.06511,11.99618h-59.44816c-.2652,4.79935-.2652,8.79659-.2652,11.99611,0,18.39309,6.39692,43.72001,29.05683,43.72001,16.26074,0,26.6571-8.26407,26.6571-21.86ZM287.36856,382.55761h46.11743c3.19959-30.12188-5.06448-46.91734-18.39303-46.91734-18.39528,0-25.32472,25.32472-27.7244,46.91734ZM425.66877,459.59902v-91.96972c0-21.86-4.79935-32.25642-20.5275-32.25642-13.32861,0-23.99235,12.53089-23.99235,27.7244v96.50174h-13.32855v-133.29005h10.66367l2.66487,11.19845c4.53196-7.46634,12.53089-13.86333,25.32472-13.86333,24.7922,0,32.52374,16.26081,32.52374,36.52099v99.43394h-13.32861ZM453.57359,429.74234c0-14.12846,7.73154-19.99285,14.12846-19.99285,3.73204,0,6.93156,2.13228,7.73154,5.597-5.06667,0-8.26407,6.13178-8.26407,12.53089,0,11.72879,9.32911,22.12514,26.12457,22.12514,15.99349,0,26.12457-12.2635,26.12457-24.25961,0-30.9218-57.84834-35.45375-57.84834-74.64174,0-18.39309,12.79596-27.45707,27.19174-27.45707,19.99299,0,26.65723,11.46365,26.65723,20.79277,0,7.73154-4.53202,10.66374-8.52927,10.66374-3.46684,0-6.9317-2.13235-6.9317-5.06455,6.66437-1.59976,4.53202-15.72822-10.39628-15.72822-8.26407,0-15.46309,6.13178-15.46309,17.59318,0,27.19187,58.64832,35.72114,58.64832,73.04198,0,21.32748-15.99561,37.32309-39.72051,37.32309-25.85725,0-39.45319-14.66317-39.45319-32.52374Z"/>
  <path class="cls-1" d="M72.08121,510.55274c30.05887,0,44.78074,25.45739,44.78074,48.15412,0,17.17594-11.96142,21.16443-20.24286,18.40404,9.81388-21.77749-1.22809-52.4492-26.07243-52.4492-40.18133,0-53.67511,79.74748-53.67511,118.08786,0,29.13716,8.28145,73.30492,53.36865,73.30492,24.53788,0,36.80569-13.18732,36.80569-32.20415,0-2.76053-.30646-8.28145-3.98637-10.42905.30646-2.45393,3.67991-4.60141,7.66846-4.60141,5.52099,0,11.96142,3.98849,11.96142,15.94984,0,25.15093-15.94997,46.62182-52.4492,46.62182-59.8112,0-70.24019-54.90327-70.24019-88.64198,0-42.94179,16.25643-132.19681,72.08121-132.19681ZM206.21469,728.32455v-105.82004c0-25.1508-5.52099-37.11215-23.61843-37.11215-15.33699,0-27.60487,14.41542-27.60487,31.89769v111.0345h-15.33699v-214.70482l15.33699-3.06699v77.29354c5.21446-8.58791,14.41535-15.94984,29.13942-15.94984,28.52424,0,37.41868,18.71037,37.41868,42.02015v114.40795h-15.3348ZM320.82907,692.43823c7.05554,0,10.12253,4.908,10.12253,10.42892,0,13.49604-13.80243,28.52438-40.79431,28.52438-40.48785,0-48.7693-39.56622-48.7693-64.1041,0-24.23142,4.60154-95.39099,48.7693-95.39099,26.99188,0,39.87487,26.99181,36.49923,67.78612l-1.22591,13.80237h-68.39911c-.30653,5.52105-.30653,10.12034-.30653,13.8025,0,21.16218,7.35988,50.3016,33.43231,50.3016,18.71043,0,30.67179-9.50729,30.67179-25.1508ZM258.2574,639.68257h53.06431c3.67991-34.66034-5.82745-53.98376-21.16443-53.98376-21.16443,0-29.13942,29.13942-31.89988,53.98376ZM426.27957,692.43823c6.13397,0,9.50742,4.908,9.50742,10.42892,0,13.49604-13.8025,28.52438-40.79219,28.52438-40.48779,0-50.30385-39.56622-50.30385-64.1041,0-42.02241,11.34843-95.39099,52.75566-95.39099,22.69899,0,34.35388,12.26781,34.35388,36.19277,0,14.10883-8.58791,24.23129-15.64338,24.23129-4.59942,0-9.20096-2.76039-10.73551-7.36193,6.13609-1.22597,11.04197-8.58791,11.04197-17.78886,0-12.27007-5.21446-21.47089-19.93634-21.47089-26.37896,0-36.4993,45.39585-36.4993,81.58862,0,21.16218,7.35988,50.3016,34.96687,50.3016,18.70824,0,31.28477-9.50729,31.28477-25.1508ZM455.66243,728.32455v-214.70482l15.33692-3.06699v115.02087c11.34843-24.23129,30.67185-53.67717,47.84766-53.67717,15.03059,0,15.03059,17.78873,9.20096,20.2428-1.53243-3.67991-4.59942-4.90588-7.97499-4.90588-7.05335,0-17.17581,11.04197-26.68323,24.53576,14.10896,22.08594,32.81933,63.4933,38.03379,116.55542h-15.33692c-3.37345-42.32674-18.09745-82.20154-31.59123-102.75093-6.13609,10.73339-11.35069,21.16231-13.49604,28.21792v74.53302h-15.33692ZM621.86089,692.43823c7.05335,0,10.12034,4.908,10.12034,10.42892,0,13.49604-13.80237,28.52438-40.79431,28.52438-40.4856,0-48.76704-39.56622-48.76704-64.1041,0-24.23142,4.59929-95.39099,48.76704-95.39099,26.99195,0,39.87493,26.99181,36.50149,67.78612l-1.22809,13.80237h-68.39918c-.30646,5.52105-.30646,10.12034-.30646,13.8025,0,21.16218,7.36207,50.3016,33.43225,50.3016,18.7105,0,30.67397-9.50729,30.67397-25.1508ZM559.28923,639.68257h53.06212c3.68216-34.66034-5.82738-53.98376-21.16443-53.98376-21.16218,0-29.13716,29.13942-31.89769,53.98376ZM651.85681,728.32455v-153.36125h12.26781l3.06911,12.88299c4.90588-8.89437,13.80237-15.94984,30.67185-15.94984,15.64126,0,26.37677,11.3483,26.37677,28.21778,0,13.18945-7.35994,21.47089-17.78886,21.47089-6.13397,0-12.27007-3.67991-12.27007-12.88299,7.05561,1.22809,15.64351-1.22597,15.64351-11.34843,0-5.21446-3.67991-13.18945-13.49591-13.18945-19.62988,0-29.1373,21.16443-29.1373,39.26188v104.89841h-15.33692Z"/>
  <path class="cls-1" d="M788.56376,729.19179c-17.14543,21.76873-37.62079,41.22906-60.51109,57.69192-18.79302,13.53504-39.24238,24.93561-60.65901,34.23222-4.61454,2.02144-9.2921,3.93861-13.97404,5.72748-17.47153,6.6925-35.37555,11.97435-53.59252,15.96297-37.19268,8.1988-75.50254,11.12237-113.31677,10.01381-56.46608-1.64109-112.10831-11.99611-165.58992-28.05262-26.72018-8.10102-52.94047-17.66708-78.47388-28.69817-12.77208-5.56231-25.38124-11.41795-37.7599-17.75835-12.34615-6.34916-24.56614-12.93512-36.28624-20.4211,26.08981,9.36387,52.26878,17.75185,78.61729,25.38774,26.35064,7.64889,52.79911,14.55233,79.42145,20.4276,53.19479,11.78093,106.99156,19.81243,160.84928,21.34048,33.34323.91513,66.76671-.60854,99.61868-5.61007,20.08851-3.07999,39.95745-7.44684,59.45254-13.2916,6.89468-2.06058,13.75036-4.32122,20.55801-6.75565,18.46918-6.6251,36.49061-14.61959,53.88598-24.10313,12.00924-6.31864,23.41632-13.68933,34.81039-21.25571l8.43136-5.88827c2.81492-1.98456,5.46454-4.14941,8.21405-6.20787,5.65359-3.97986,10.79203-8.57053,16.31733-12.77646l-.013.03476Z"/>
  <path class="cls-1" d="M666.90253,799.41022c-6.80779,2.43443-13.65245,4.69507-20.56027,6.75565-19.49509,5.85789-39.36191,10.22461-59.45029,13.2916-.66307-1.9758-1.27811-4.02776-1.79763-6.11221-7.72717-30.80439,4.02776-60.27852,26.26374-65.85596,22.22298-5.56669,46.50004,14.85441,54.2272,45.65668.51952,2.10834.95852,4.18855,1.31725,6.25337v.01088Z"/>
  <path class="cls-1" d="M810.80199,638.67842c-37.16004-30.89792-67.96443-67.4254-94.43685-107.64806-3.86909-5.8774-7.37719-7.00771-13.90027-5.90141-33.68657,5.72098-62.53041-4.17979-86.60316-28.22203-2.02569-2.0237-3.67553-2.78878-6.75764-2.26502-10.78991,1.83465-20.1689-4.458-23.08372-14.97182-.50864-1.83876-1.17821-3.42771-2.47145-4.9275-6.49907-7.52724-6.56434-16.93244-.36298-26.5028,5.4384-8.39667,15.40432-12.41786,24.36608-9.61169,2.215.69338,3.6669,1.36932,5.76012-.83905,6.78603-7.14682,15.26966-8.90524,22.31425-5.20796,7.23378,3.79944,11.25066,12.57434,9.09217,21.74697-.8151,3.4691.02401,5.06667,2.61061,6.87074,10.67024,7.43158,22.25124,12.15053,35.87543,12.80047-5.59057-12.49394-11.39195-24.40535-16.3152-36.66447-16.87798-42.03547-30.41965-84.98164-30.8739-130.83174-.41087-41.50945,12.27431-78.18473,42.29849-107.94795,7.74892-7.68153,17.1128-13.27422,25.48989-20.13202-3.20178-6.64255-3.04748-7.11199,2.8518-8.56184,6.12946,4.76459,10.95932.5434,15.9716-2.33878,2.37142-2.52139,4.0929-5.20577,3.17126-8.95095-.23031-.94114-.09778-2.40617,1.38464-2.52571,1.02167-.08258,1.46066.97377,1.97368,1.74324,1.51492,2.27357.45637,6.25563,3.47998,7.17945,3.41908,1.04548,6.82941-1.10637,10.24849-1.82589,2.15185-.45425,4.42337-.70419,6.27526-2.09315.78247-.72383,1.41064-1.59326,2.16923-2.34316,2.44743-1.66715,4.61242.65862,6.9577.47382,2.41705-.31077,4.85374-.3586,7.27291-.67381,2.65837-1.07374,5.30799-2.57791,8.0445-.19124,2.15185,2.667,4.96889.902,7.38382.89119,51.63185-.27608,90.4416,23.175,119.31595,64.64743,15.49347,22.25343,25.37248,47.1369,32.61926,73.14851,9.15307,32.85627,15.57174,66.18424,17.8345,100.25992.03264.50645.39773.99546.78034,1.89972,12.92862-8.04669,21.23395-19.34511,26.33976-33.33885,1.07155-2.9387-.96939-4.19724-2.00194-5.95348-5.90778-10.07032-3.78856-20.85578,5.22109-26.04205,5.15357-2.96258,10.48331-2.63436,15.72815-.63249,2.19537.83686,3.39958.75859,5.31237-.86512,7.08599-6.01869,17.18669-6.1426,25.66594-.74771,9.7356,6.1883,13.07217,13.68502,10.52245,23.67933-.41737,1.63671-.62818,3.19952-.36735,4.95364,1.70198,11.39838-4.13641,20.60365-15.16963,23.26846-3.1235.75646-3.81244,2.15192-4.6623,4.94064-8.98577,29.49808-28.15052,49.74957-56.58562,61.38927-.3456.14341-.71507.23688-1.07818.32384-5.82088,1.40852-8.25531,4.17986-8.48137,11.06585-1.67797,51.21899-9.95729,101.28364-28.31344,149.38788-.48901,6.49469-4.39498,11.68315-6.673,17.49753-6.8708,14.47618-16.38247,27.08096-27.36142,38.65758-4.02762,3.94511-8.7617,5.771-14.41966,4.8276-16.55851-3.67778-32.01722-10.04644-46.40876-19.01696-6.25563-4.29283-13.24158-7.64664-18.00392-13.87626v-.00212Z"/>
  <path class="cls-10" d="M757.88753,160.96687c-2.26701-.08696-3.82332-2.59529-6.3339-1.85408-2.25401-1.46504-1.87139-3.8669-2.02144-6.00568-.57816-8.30101-.54115-16.6151-.38686-24.9313-.25432-19.46252,2.14097-38.79675,2.78878-58.21795.24344-9.02265-.39999-17.9084-3.06049-26.63978-4.39723-14.43492-21.45789-24.54657-36.23841-16.36728-7.39895,6.63605-7.42508,15.18701-6.05782,23.96403,1.84977,11.87227,4.40798,23.60324,7.4881,35.2255,6.19911,23.39456,10.02243,47.34559,16.5215,70.67494,1.99544,7.15988,1.96506,7.23378,9.1857,5.86002,3.71466-.75421,7.30555-3.0778,11.24628-.88462-5.69697,3.44953-12.35259,3.68209-18.54957,5.44702-1.89979.5434-2.48883-1.14982-2.87568-2.65181-.63905-2.49964-1.25423-5.00578-2.5671-7.61194,3.06924,5.50573-.48251,8.90524-3.36681,12.50913-3.84733-4.58416-4.24082-10.32464-4.83198-15.82825-.56954-5.3123-2.27789-9.803-6.21437-13.40244-12.43086-10.692-25.00739-21.17312-40.56825-27.20925-.87162-.3391-1.63883-.87812-2.37792-1.44978-12.29833-6.8121-25.85725-10.02469-39.26188-13.6025-12.75695-3.40602-25.80949-4.88405-39.02069-4.91669-8.6813-.54121-17.23883.72602-25.60943,2.61705-6.39042,1.44547-11.55712,5.29054-14.47844,11.5201-6.92294,9.9943-10.28339,20.99707-9.40089,33.20406,1.68672,21.95128,19.81031,28.58083,34.39965,27.06365,14.07194-1.46285,27.4048-6.08396,41.09639-9.15525,10.05944-2.25619,20.18628-4.00162,30.45653-4.87974,3.9126.12822,7.81207-.38911,11.72229-.42825,17.47365-.17386,33.73658,3.27567,46.92828,15.81518.31296.58254.24344,1.11506-.20218,1.59983-4.99715,1.36501-2.35616,5.11012-2.49095,7.99018-2.08671-1.5585-4.23206-3.04304-6.25125-4.6885-13.75898-11.21583-29.95678-11.65489-46.46966-10.4333-17.13455,1.26716-33.73433,5.43183-50.34299,9.55518-10.18986,2.5279-20.29494,5.46009-31.01957,4.9884-22.48593-.98896-38.28811-16.86066-38.6402-39.29883-.22394-14.10458,4.06026-26.85709,11.65927-38.72286,7.44459-11.62445,19.11898-14.35015,31.46732-15.86301,12.52651-1.53674,25.01176-.81073,37.44687,1.19765,1.96718.31734,3.9321,1.16727,6.71213.15217-5.66433-3.70597-11.28528-6.52083-16.12814-10.54633-13.09167-10.88543-16.65855-23.1533-10.69638-39.07283,5.14056-13.72197,13.81988-24.80089,25.65944-33.47357,2.78441-2.0367,5.49279-2.60836,8.87924-1.96274,17.36274,3.29948,31.8238,12.0722,44.71766,23.67276,9.33137,8.39667,17.69533,17.73009,25.74422,28.89379-.3326-4.42111-.78034-7.7533-.8021-11.08761-.12378-18.73,14.18285-30.76087,32.71293-27.59399,18.743,3.19959,31.81504,20.03637,32.39983,42.7136,6.53595-11.90046,15.3478-20.51881,26.33326-26.88966,8.88999-5.15363,18.20836-8.8553,28.78945-8.17498,13.32861.85424,22.56645,7.89671,27.90045,19.62769,5.05579,11.12018,2.61486,21.54917-4.97102,31.01957-7.72504,9.63783-17.98017,16.31945-27.42882,23.93577-6.11434,4.92976-12.35046,9.69866-17.97354,15.19789-10.84629,10.6116-17.59544,23.19675-18.6975,38.55331-.19555,2.74315-.79109,5.46228-1.20196,8.19017-2.96908-.45425-5.61219.54559-8.19455,1.82801-2.2475-4.75371-.0065-9.56387-.18255-14.34365,3.27355-18.94081,12.60266-34.21047,27.3593-46.51523,9.38125-7.81851,19.15162-15.14137,28.49161-22.99464,4.31034-3.6212,8.43149-7.45984,11.44846-12.33521,7.75317-12.5287,3.31693-25.43126-10.51595-30.99788-8.96402-3.6082-17.18895-.29339-25.00526,3.01485-14.53707,6.15129-24.73993,17.35624-32.53449,30.85871-1.62596,2.81916-2.2889,5.95786-2.66713,9.13569-1.34763,11.37662-2.43005,22.77938-2.9322,34.23435-.36735,14.93919-.63468,29.87406.11091,44.80675.10428,2.08015.03038,4.11247-1.09768,5.95786l.00212.00657Z"/>
  <path class="cls-2" d="M787.82693,603.00941c-14.58934-13.86976-27.23313-29.45026-39.55972-45.28932-28.96987-37.23168-51.87967-78.02825-70.27721-121.34608-12.88073-30.32838-23.15536-61.56313-28.42209-94.20641-5.2471-32.53024-5.29923-64.79529,8.32058-95.63443,18.03881-40.84433,49.03012-65.98863,92.98269-74.58741,4.85586-.94989,9.90953-1.33244,14.85441-2.11278.45001,1.45854-.79122,1.86284-2.02144,2.91051,7.19026,1.9236,14.84353,1.60845,20.7058,6.56865.36298.43906.57816,1.02372.98465,1.36932,10.49419,8.97921,10.34202,21.74478,12.11564,33.83661.56954,3.88209-.17167,7.2816-2.21487,10.73107-2.25626,3.80819-1.06292,7.39683,2.27364,9.13569,9.21396,4.80372,10.99196,15.05228,3.90809,22.48818-3.25816,2.01932-7.08811,2.28664-10.6246,3.46472-5.56443,1.85196-10.48331,4.76021-15.44995,9.5248,13.38725-2.08233,24.44435-8.2315,36.32968-11.76361,4.23419,1.67372,5.08405,3.46691,2.47795,6.77734-2.88231,3.66253-5.5188,7.61632-9.2531,10.52676-3.09962,2.41493-4.006,4.79935-.66731,7.74673,1.27161,1.11944,2.36266,2.57791,2.65187,4.24075,1.93229,11.01584,7.50322,21.69915,6.41642,32.76931-.74559,7.59244-1.7106,13.99374,3.05823,20.51888,1.63896,2.24532-.18467,5.44709-1.52368,7.95761-1.66497,3.12344-1.66709,5.6709,1.98668,7.39895,2.82354,1.33675,3.15388,3.42777,1.63896,5.52318,5.56881-.85424,11.31142-2.39317,17.08016-3.82338.43475-.10872.84124.63687.99765,1.20196-1.86052,5.04279-6.55333,7.13813-10.6246,9.59-15.07822,9.08786-31.37379,13.23946-49.0605,11.14194-6.20773-.73909-6.17298-.66731-3.68853,5.29486,5.71223,13.69597,13.2981,26.08119,24.80958,35.74721,2.46043,2.06489,5.12743,3.83426,8.07488,5.09931,12.08752,5.18839,24.19441.37385,30.09794-11.80925,1.0868-2.24532,1.10418-5.30792,4.19505-6.24263,3.84083,7.0034,1.05205,13.37425-2.38879,19.32561-2.99521,5.18189-6.86205,9.82688-6.37954,16.35202.34997,4.73195,1.52593,9.23784,3.26479,13.60463.90426,2.26707,1.84539,4.50377,2.42581,6.88387,2.16273,8.86823-2.31928,13.68071-12.26357,12.19179,2.34103,2.00618,3.52999,4.24281,2.54309,6.56209-3.06473,7.2099-2.83654,15.04784-4.38198,22.5382-1.39326,6.74464-4.0515,10.94844-10.91581,12.10689-11.45271,2.50408-22.82078,5.30149-31.81942,9.59219,10.49406-1.60845,22.10331-6.12084,33.89525-9.98767,9.42477,2.35616,11.49397,10.70062,4.50589,18.10395-.15655.32609-.82824.66731-.72821.66731,4.71245-.05652,9.12919-1.63246,13.64808-2.74965,3.83207-.8695,7.57937-2.06496,11.45934-2.67788,1.87577.00876,4.17542-.15867,4.80147,1.93879.72807,2.44107-1.55193,3.59301-3.27779,4.6298-4.33209,2.61274-8.92488,4.76247-13.31561,7.27079-1.37151.78472-3.25378,1.31937-2.26051,3.73204,2.54959,6.18611-.29346,11.44409-3.67778,16.10864-2.98221,4.10815-5.03191,8.24457-5.14919,13.33299-.04789,2.06482-.43913,4.13853-1.38464,5.98605-1.58019,3.08224-1.46066,5.99043-.03476,9.14006,1.53243,3.38857,2.02582,7.09687-.96077,9.94641-3.00609,2.86692-6.79691,2.86918-10.53545,1.42152-4.76897-1.84977-9.08355-4.39936-12.45262-8.3771-2.68225-3.16476-5.79488-5.84051-9.43777-7.86633-11.2224-10.92018-19.84732-23.87919-27.77004-35.11897,8.32483,14.11108,17.26921,29.95452,28.22203,44.53073,1.28461,1.70848,3.08012,3.49523,1.79113,6.06658l.00438-.00438Z"/>
  <path class="cls-2" d="M783.24714,179.12302c-7.35769-3.07786-15.3153-3.8734-23.19675-5.64271,1.27798-2.79741,4.53189-1.48023,5.67309-3.65165,13.96979-1.52374,27.86343-1.45635,41.59628,1.9693,1.4064,1.88446,3.51049,2.83436,5.52105,3.74942,39.20099,17.83881,64.65612,48.62151,82.02762,87.00958,7.91847,17.50191,14.43492,35.5494,18.50181,54.31198,7.69891,35.51027,12.16778,71.41177,12.41786,107.8393.3042,43.95257-2.31928,87.60087-12.97002,130.39049-4.94276,19.85156-10.0942,39.79666-22.2795,56.91383-3.06911,4.3102-6.29251,8.42698-10.39204,11.81568-9.55956,7.90759-18.10833,16.98238-28.10913,24.38133-1.03891.76734-1.84751,1.92367-3.32993,1.91279l-.13041-.0999c-2.95608-2.34754-6.37742-3.96686-9.49428-6.0622-1.25423-.84336-2.59973-1.79113-2.26714-3.55825.39123-2.08008,2.2215-2.31928,3.90385-2.59522,1.68885-.27833,3.35607-.11303,5.03403.23907,7.38157,1.56494,12.67868-.33697,16.55201-7.03597,2.99309-5.1797,6.87306-9.04229,11.60063-12.65255,9.68121-7.4012,17.08892-16.45424,20.68405-28.69393,2.40617-8.18579,6.60772-15.89332,9.82688-23.88795.74121-1.84314,3.07786-4.11465-1.11944-4.99052-1.08243-.22606-1.34763-1.58032-.86724-2.32366,2.27138-3.52124.49777-6.84029-.13041-10.29201-.81073-4.47325-.94114-8.96839,1.27585-13.2177.7826-1.49767,1.50643-3.13876,1.02167-4.86674-3.1365-11.15275-.89775-22.45117-.49777-33.60829.72821-20.26456.38686-40.49223-.73033-60.6872-.6173-11.20064-2.86918-22.34039-2.99309-33.58229-.11303-10.13553-1.11944-20.26893-2.14747-30.22622-1.03904-10.05513.52165-19.78855.0999-29.63062-.29333-6.77296-4.63192-12.38091-7.34455-18.42135-.5239-.12822-.97815-.36735-1.39552-.69776-1.80188-4.0994-5.32311-6.71644-8.39448-9.72685-10.08982-36.62533-24.92473-70.85537-50.74285-99.41875-12.07664-13.35899-25.76385-24.70962-42.54631-31.85424-1.74748-.7434-3.3103-1.76062-4.66018-3.10174l.00226-.0065Z"/>
  <path class="cls-9" d="M848.70537,650.12025c.9085-1.89103,2.28664-3.24516,3.99512-4.5429,11.23752-8.51613,21.92514-17.82349,31.4782-28.07862,11.15063-11.96785,16.76932-27.19625,21.61868-42.75274,9.64207-30.9218,14.43492-62.63044,16.87811-94.78669,2.29752-30.26105,2.43005-60.56117.04338-90.78958-1.67584-21.22745-5.2406-42.20714-9.32911-63.18246-5.50566-28.24385-14.94356-54.81843-28.58076-79.87577-12.3092-22.6164-28.68729-41.80072-50.27772-56.57255-8.74671-5.98612-18.41916-9.88777-27.31578-15.36087-1.93667-1.18902-1.64321-1.65415.09778-2.3801,21.49491,3.44077,40.04223,13.13512,56.58124,26.93317,23.25977,19.40381,38.6272,44.35031,49.23443,72.2747,14.29151,37.62079,22.18384,76.74357,25.89426,116.7728,6.09046,65.65603,2.27351,130.46439-16.83247,193.88817-7.29242,24.20091-16.38034,47.81941-32.68679,67.57532-13.34586,16.16728-6.52945,14.59147-26.60058,7.48372-4.91676-1.74112-9.90728-3.46034-14.20023-6.60772l.00226.00212Z"/>
  <path class="cls-2" d="M891.30806,323.25936c.11953-.14341.24132-.28689.36298-.43037,3.4626,6.88387,8.75095,13.09605,8.26844,21.46008-.3326,5.77312-2.0367,11.70922-1.14544,17.2519,1.42152,8.82054.46287,17.72366,1.93017,26.4246,1.68447,9.98555.67594,20.11239,2.39092,30.10231,2.59098,15.09354,1.82151,30.48486,3.26917,45.7175.99978,10.52471-.94127,21.2971-.86087,31.95208.07177,9.5183-3.07335,19.39731-.14554,28.39171,2.69525,8.27919-4.33209,14.75438-1.75637,22.38165.40437,1.19758-.09552,2.88868.58042,3.77118,2.66925,3.49298,2.3019,6.38829-1.39114,8.75533,1.71498,2.11484,3.14526-1.87591,4.34284.23044.96727,1.69535.66081,3.46247-.18029,5.36437-4.59504,10.38766-9.12706,20.77545-13.02653,31.48908-4.07114,11.18326-12.76345,19.34518-22.50556,25.97254-2.47569,1.68447-4.15591,3.38857-5.49704,5.95779-1.9823,3.79519-4.16679,7.33819-8.12052,9.81826-4.0929,2.56697-7.7533,4.41236-12.34622,1.63021-.61292-.37173-1.51718-.74996-2.11709-.56516-1.88877.57604-4.90362-.59129-5.5253,1.40202-.65206,2.08446,2.10621,3.09737,3.74518,4.28845,2.38229,1.73236,5.64483,2.33228,6.99684,5.39276-16.95413-7.64889-31.30003-19.0691-44.97411-31.38692-5.49279-4.94926-10.53333-10.40292-15.78043-15.62388-2.15835-5.25797-5.81876-9.59431-9.15307-14.05019-8.89224-11.88096-15.41519-25.18569-23.21851-37.7187-.74333-1.19108-.76734-2.83004-.67169-4.57766,10.23987,13.54592,19.90596,27.50271,31.38692,40.01622,10.80065,10.12034,21.49491,20.38197,34.42778,27.85043,7.09249,4.09502,14.67624,6.70338,22.94469,7.04247,12.80909.59129,24.64003-1.98443,34.85377-10.28339,6.09921-4.95788,10.10734-11.18751,11.52886-18.84953,7.46422-40.18352,12.70482-80.56696,12.35696-121.58733-.28908-33.93439-3.64289-67.57094-8.22705-101.11409-.99115-7.25335-3.06261-14.32846-1.53681-21.72309,1.43028-7.46415,2.08459-14.86748-1.41502-22.02949-.41511-.84993-.22606-1.83889.20218-2.72139l.0065-.00219Z"/>
  <path class="cls-9" d="M597.02743,480.42217c-2.08233-3.15163-1.39977-6.04482,1.03254-8.65968-1.70636-1.86489-4.00388-1.2411-5.81663-2.07139-2.85618-1.30418-4.52114-3.42127-4.45813-6.54259.05877-2.81698,1.85853-4.36891,4.53852-4.9145,1.9693-.40211,3.23216-.73683,2.72789-3.57556-1.06505-5.99918,3.1909-9.39439,9.13781-7.65984,1.22809.35866,2.38667,1.07374,3.47998,1.77587,4.71457,3.02347,8.32708,2.11272,10.83329-2.73227,2.73001-5.27967,6.88818-7.58156,11.2224-6.21649,4.09064,1.29111,6.37954,6.04475,5.59694,11.63964-.05426.36954-.03476.79554-.21293,1.10206-4.65156,8.03581.67156,12.01137,6.29476,16.18247,12.24831,9.09005,25.86163,14.41542,41.11815,14.6915,4.79935.0869,7.66853,1.46928,9.2791,5.92303.88688,2.44969,2.20412,4.74495,3.32569,7.10987-.29346,3.80607-3.60163,2.59748-5.46666,2.81266-12.79171,1.48029-25.43338.81723-37.98603-2.58448-10.75064-2.91468-20.31669-7.69453-28.52424-15.18701-2.69088-2.45606-5.67959-3.51036-9.31386-2.61473-4.70807,1.1607-9.39651,2.84955-14.28288.52377-.85198-.40649-1.59319.85424-2.52571.99991v-.00226Z"/>
  <path class="cls-6" d="M597.02969,480.42005c.20431-1.43028.40424-2.86268.72595-5.14707,4.03413,5.67747,8.97914,4.27107,13.79149,2.61486,5.13632-1.76937,9.10531-.73909,13.26772,2.98433,16.67592,14.90881,36.96224,18.44517,58.46577,17.53879,4.00374-.16729,8.12278.04564,11.8527-1.94104,2.96258,4.95589,5.8839,9.93567,8.90312,14.85667,1.89541,3.08874.34772,3.74518-2.46707,4.15591-32.38683,4.71683-59.53081-5.15582-81.3952-29.37848-2.41055-2.67137-4.16891-3.4017-7.56624-1.95842-5.89053,2.49745-11.28754,1.29987-15.57612-3.72342l-.00212-.00212Z"/>
  <path class="cls-6" d="M1028.05202,362.06918c1.99968,4.94495-.88462,10.25075-6.78603,12.20048-1.56931.51733-3.34519.92595-4.94488.73033-4.48426-.54559-6.05795,1.42371-7.03385,5.69922-6.64686,29.09372-24.85522,48.28672-51.88192,59.84377-4.24944,1.81713-5.56006.94989-5.13619-3.64734.38911-4.23631.21956-8.52701.29558-12.79165,5.95355-3.50173,12.36784-6.07089,18.02581-10.24644,12.4091-9.15307,21.06878-21.29916,28.29818-34.50605,3.27992-5.99262,6.80341-10.64417,14.03281-11.40057,5.54706-.58035,10.0877-3.90378,15.12837-5.88177h.00212Z"/>
  <path class="cls-9" d="M952.50609,419.36768c-1.58683-5.87308-.68907-9.54868,5.61445-13.18507,15.17613-8.76621,24.47048-22.736,29.60667-39.46188,1.16946-3.80601,1.42152-7.25554-2.10409-10.0747-.83898-.67381-1.38026-1.74974-1.96705-2.69744-2.37142-3.82338-3.28429-7.85326.36735-11.23978,3.67991-3.41689,7.8467-2.84304,11.80481-.08258.15429.10653.32822.1848.46738.30865,2.08233,1.82582,4.27982,5.25366,6.20349,5.10368,2.71913-.21306,1.96267-4.64718,3.58863-6.90556,2.46269-3.42127,5.66871-5.02541,9.67683-3.90597,3.69729,1.03241,3.69078,4.23419,3.25829,7.37288-4.08852,1.80188-6.77303,4.70582-8.18805,9.07917-.96289,2.97565-3.4691,4.88624-6.62948,5.49923-3.37345.65206-4.921,2.47138-5.56881,5.95998-4.54715,24.48793-18.65823,41.93763-40.20089,53.77295-3.27779,1.80194-3.29079,1.778-5.93179.45863l.00226-.00219Z"/>
  <path class="cls-18" d="M706.29044,170.43077c.013-.23263.04564-.46301.10428-.68688-2.56259-3.01478-4.73407-6.23175-6.38604-9.88558-2.25838-4.98408-6.67512-8.1054-11.08323-10.95282-15.06522-9.73342-30.47829-18.73431-48.80406-20.91449-1.48242-.17605-2.99521-.56078-4.22331-1.48454-2.03444-1.53024-1.45416-2.75615.56728-3.71685,18.41054-.81079,36.0885,2.61917,53.17953,9.32474,1.91066.7499,3.75168,1.69541,5.62758,2.54315,5.52092,2.49964,10.7984,6.04694,17.36486,3.97549,3.71042,2.17149,6.09046,5.27535,6.89694,9.56825,1.33675,7.09899,2.74301,14.18717,4.12115,21.27965-1.72586.67381-3.68428,1.03029-5.13406,2.08665-4.51677,3.28867-8.56403,3.68209-12.23305-1.13894l.00212.00219Z"/>
  <path class="cls-2" d="M952.50821,419.36768c7.20764-1.35851,12.79383-5.87527,18.1801-10.2333,15.00658-12.14184,24.59214-27.65707,26.82227-47.1239.29996-2.62786,1.59333-3.23428,3.47135-3.44077,5.83826-.63474,9.15731-3.86902,10.24412-9.51392.88038-4.57109,4.38423-4.40592,7.80119-4.46025,3.57112-.3391,7.7923-4.02119,10.38766,1.20203,2.79303,5.62314-1.85627,8.39879-5.63621,11.7331,1.00203,1.88672,4.05602,2.04977,4.2712,4.53415-3.88209,5.30799-9.89003,6.51002-15.70003,7.47072-5.60145.92595-8.99877,3.80819-11.25716,8.76614-5.31874,11.67665-13.0004,21.83831-22.2251,30.52187-7.42721,6.99246-15.39131,13.90021-26.30288,15.27609-.2522-1.57369-1.05417-3.143-.05652-4.73195Z"/>
  <path class="cls-18" d="M757.88328,160.96899c-1.28899-17.03671-1.53893-34.07568-.11953-51.11889,2.16698-7.30555,7.61413-12.90037,10.35503-19.90596,4.6298-9.30736,11.78968-16.64117,18.84953-24.04011,1.01729-1.06724,2.27138-1.96274,3.92985-1.80188,3.70816,1.94098,2.77578,4.51239.68695,6.8838-4.23856,4.80804-7.87933,10.04425-11.36157,15.3935-7.29679,11.21364-13.57418,22.89898-16.55201,36.11231-.76947,3.41696-1.00415,6.64912.85212,9.80519,2.50395,4.26463.80635,9.19651,2.09096,13.66327-.39986,4.72983-.80422,9.4574-1.20634,14.18498-2.50833.27608-5.01453.54997-7.52286.82379h-.00212Z"/>
  <path class="cls-18" d="M751.01898,161.78628c-3.71466.79122-7.42946,1.58238-11.14187,2.3736-2.15198-.43694-1.89541-1.95842-1.43028-3.41908.78685-2.47357,1.02591-5.04498,1.51718-7.57287,1.17808-6.99465,4.03638-13.56987,5.02103-20.63622.38036-2.73008,1.48892-5.64709,5.47104-4.59285.50201,10.38547-.11303,20.81015,1.10193,31.17174-.17817.89331-.3586,1.7845-.53902,2.67569h0Z"/>
  <path class="cls-8" d="M591.63905,91.85043c23.71415-.41518,46.14144,5.68616,68.16661,13.64376,3.77118,1.36282,7.90321,2.15185,10.91581,5.18839-1.91279,4.7167-5.87089,5.24272-10.20723,4.96671-10.67236-.676-21.24271-2.47795-31.97809-2.56922-19.08223-.16305-37.61005,2.54527-54.14243,9.14219,9.72473-2.55615,20.67529-5.61657,30.77387,2.95395,1.17158,1.08462,2.11935,2.33009,2.77578,3.78856,1.75624,4.67544-.62818,7.95111-3.8212,10.83329-7.2164,6.50783-15.97399,10.2812-24.80308,13.97417-7.02085,2.9322-14.14372,4.51239-21.83175,3.88859-6.6056-.53259-10.74851-4.07771-13.25684-9.73779-3.36044-7.58806,2.17361-16.03687,10.77889-16.80634,2.65612,2.46269,1.56507,6.02306,2.60836,8.97045,1.30411,3.70166,2.25613,8.91181,7.04685,7.98368,5.20796-1.00634,3.569-6.37304,2.89518-9.99205-1.54318-8.29889-3.95373-16.41729-5.95567-24.62265-.60642-2.48226-2.12147-4.33853-3.74942-6.16654-.27396-3.70166,2.45831-5.45578,5.02966-6.81648,7.62727-4.04288,15.37619-7.92059,24.38571-7.65327,1.54331.04564,2.95621-.45644,4.37123-.96939h-.00226Z"/>
  <path class="cls-8" d="M598.34468,49.48674c-.53902-6.68162,2.25838-12.48519,5.22534-18.08007,3.51474-6.62517,7.98149-12.64604,13.41989-17.91271,3.85595-3.73204,8.03575-4.7689,13.32636-3.37995,14.05894,3.69516,25.23783,12.08526,35.87331,21.37743,7.74017,6.75996,14.62623,14.35234,20.82308,22.56208-1.44978,1.77369-1.45416,1.78888-3.72329,1.15639-6.32966-1.75412-12.44399-4.07771-18.34102-6.96646-.88024-.31515-1.83014-.60642-2.49095-1.23678-8.52489-8.17273-19.29503-12.50044-29.72196-17.42363-1.20846-2.62136-2.45831-4.34722-5.03616-1.0281-3.31043,4.26244-8.96402,6.28389-11.2094,11.62445-1.12369,2.68006-3.74292,5.74486-.14779,7.90978,3.37345,2.03232,5.82101-.75859,7.99462-3.27779,2.28664-2.64968,2.26926-6.91425,6.04257-8.48801,7.92285,1.89322,13.99593,7.02728,20.08413,11.9179,6.12309,4.91888,12.26569,9.90515,17.15419,16.18473,2.68663,3.45172,5.8839,6.9512,3.08211,11.55924-2.73651,4.49939-7.37069,3.71473-11.69615,2.97783-9.85076-1.67147-19.29078-4.86017-28.61114-8.30101-7.3817-2.72132-14.97182-4.99496-21.95791-8.70744-5.09705-2.70613-9.38337-6.16223-10.09208-12.46568l.00226-.00219Z"/>
  <path class="cls-8" d="M712.26574,24.99237c15.13049-6.90775,32.17802.77597,37.91638,16.94544,3.25829,9.17913,3.46698,18.63873,3.17352,28.18522-5.15582-2.16273-1.4933-6.36654-2.43443-9.20739-.83248,8.68356-2.17361,17.53229-7.2099,25.53991-2.04758,3.25823-1.10631,7.67496-1.61283,11.55274-.64556,4.97321-.03264,10.11377-1.96492,14.92612-1.36938,1.9041-2.93657,3.7343-5.54493,2.68225-2.49095-1.00634-3.47334-3.39733-3.86245-5.8622-1.56281-9.85301-1.50855-19.81031-1.10856-29.71546.43037-10.63329.66731-21.30785,1.66284-28.24385-1.2346,18.08007-3.4886,39.76621-.14567,61.54138.5978,3.88647.98903,7.84895.11953,11.76792-.42812,1.93454-1.4998,3.58213-3.52986,4.00819-2.34541.48689-3.21265-1.52593-4.16905-3.08437-1.83014-2.97352-1.60845-6.52302-2.57134-9.7291-8.45537-28.14389-8.74007-57.00292-7.59675-85.98148.07827-1.97361-.17393-3.66903-1.11944-5.3253h-.00212Z"/>
  <path class="cls-18" d="M766.6146,145.95591c-2.12359-1.54981-1.83451-3.88859-2.02356-6.08615-.14355-1.66278.11728-3.58206-.62818-4.93188-5.30799-9.58781-.67607-18.16053,2.83004-26.62453,5.89265-14.21323,13.86764-27.25489,24.16827-38.7533,1.9563-2.1823,1.16946-3.57994-.30858-5.24272-1.05205-2.86699,1.33463-4.02776,2.8713-5.46447,6.87293-6.41867,14.40016-11.9918,22.39903-16.92806,1.78888-1.10425,3.97336-2.11709,3.09737-4.64287-.85849-2.47357-3.29942-1.36938-4.934-1.16289-13.54592,1.70198-23.57936,9.06829-31.15436,20.03199-6.20137,8.97052-10.73326,18.8756-15.59562,28.59383-1.37376,2.74746.24344,4.18205,1.6976,5.87746-2.90394,6.90775-6.89694,13.17857-11.27241,19.22339.59554-14.1741-.85636-29.11766,5.04929-42.02891,8.40536-18.37784,22.99032-31.01088,43.19836-36.69054,13.20895-3.71254,23.05546,2.31709,28.85034,10.78546,4.41886,6.45562,4.86886,13.13512.87586,20.11239-4.01462,7.0164-9.89427,12.21136-15.99123,17.23677-10.27675,8.4705-21.3166,16.01511-30.92604,25.29859-11.82232,11.42014-19.56474,25.04433-22.2056,41.39642h.00212Z"/>
  <path class="cls-8" d="M554.79634,131.40358c-4.33846,2.48007-9.38563,4.53196-9.97905,10.33333-.76721,7.52505,5.36238,14.31758,12.90912,14.41323,18.08882.23256,32.98237-7.79894,46.66083-18.63873,2.68225-2.12359,3.61914-5.17101,2.37142-8.60316,4.42987-2.82567,9.12919-.64768,13.64808-.52165,11.88533.32822,23.49021,2.49533,34.44953,7.30548,7.23816,3.17564,8.02062,6.68169,2.45194,12.11352-2.52146,2.46057-3.6604,6.85992-8.31408,6.74477-21.18407,2.38223-41.61154,8.34008-62.29784,13.09598-10.17685,2.33878-20.4341,3.09306-30.31312-1.71279-10.4138-5.07105-16.36296-14.90662-15.7783-26.26593,1.53455-5.94048,7.79456-10.29858,14.25237-9.92472.2847.56516.2652,1.11725-.06302,1.66065h.00212Z"/>
  <path class="cls-3" d="M598.34468,49.48674c3.08649,6.98165,8.78133,11.07454,15.65864,13.57425,14.75451,5.36444,29.29371,11.43314,44.81769,14.41097,1.28023.24782,2.62348.17611,3.89297.45869,3.143.69988,5.76649-.28696,7.2424-2.96921,1.4129-2.56915.21081-5.13619-1.54981-7.2229-10.71588-12.71344-23.04458-23.43801-38.12068-30.75218-2.91044-3.87121-1.18033-6.12959,2.66487-7.64896,9.56592,2.17799,17.83437,6.95339,25.62031,12.72651,2.21275,1.64109,3.79506,4.16029,6.69688,4.85367,2.37354,1.83883,4.90362,3.52555,6.23387,6.37954,7.66203,8.98783,14.97408,18.24093,21.67095,27.97653,2.33878,3.4017,4.61454,6.82291,6.10996,10.7115,1.13456,2.95395.13253,4.29946-2.94095,4.21468-3.4082-.09346-6.64686-1.05205-9.88552-2.00194-14.9023-4.37329-29.87625-8.51182-45.6328-14.05019,2.91482,3.38214,5.64496,5.33837,7.68816,7.91847,1.66059,2.09315,1.62583,2.11928.38686,4.7689-13.93941-5.34494-26.91805-12.48306-38.53381-21.82087-6.74026-5.41883-12.96776-11.59406-12.01999-21.5231v-.00438Z"/>
  <path class="cls-8" d="M604.75248,125.98912c-11.99611-8.54665-24.36183-3.94511-36.85796-.96727,4.29946-4.59285,10.15297-5.84483,15.55224-7.54674,25.17906-7.94023,50.88639-6.79472,76.57847-3.36257,4.52101.60423,7.43158-1.37376,10.69412-3.42996,15.79993,6.57947,29.38936,16.47162,41.92025,27.95258-5.07105,4.66894-9.79438,1.45635-14.28501-.91726-19.2864-10.19204-40.06398-13.61113-61.55438-13.9676-6.37529,1.34982-12.86786,1.06943-19.30604,1.19115-4.29296.08258-8.47925.92814-12.7417,1.04548v.00219Z"/>
  <path class="cls-18" d="M712.26574,24.99018c1.65621.51733,3.00171.51083,2.83004,3.37995-1.36076,22.75557-.71521,45.51107,2.39967,68.08184,1.27585,9.24434,4.28195,18.26049,6.70112,27.3266.46951,1.765,1.13908,4.55153,3.50386,4.18417,2.35191-.36729,2.50846-3.01909,2.38017-5.1275-.76509-12.45918-1.79975-24.90742-1.60195-37.40568.21081-13.43508,1.39539-26.80057,2.8778-41.14422,1.74112,2.78222.84336,4.77102.73033,6.6121-1.03241,16.96719-2.36054,33.91263-1.11931,50.94072.19343,2.65181.54115,5.20146,1.20846,7.72066,1.64984,6.22956,2.67137,6.53602,7.53161,2.46488,1.04767.71726,1.38676,1.81926,1.23897,2.95389-1.69986,12.89168.70857,25.78773-.10653,38.67503,1.14982,3.64084-2.51271,6.83817-.96515,10.51157-5.91653,1.73674-9.5638-.3456-10.94632-6.24694-6.89243-29.43719-13.86976-58.857-20.62103-88.32676-1.96492-8.58359-3.93197-17.23021-4.18629-26.08119-.21081-7.35981,1.10418-14.25018,8.14453-18.51694v-.00219Z"/>
  <path class="cls-18" d="M648.90285,92.8307c.75633-3.48648-2.44757-4.57109-4.08202-6.55778-1.84115-2.23663-4.85812-3.54299-5.53405-7.64239,20.01673,5.44702,39.09446,12.93294,60.15673,16.79984-6.32952-13.36987-14.81528-23.77498-23.20763-34.25392-1.98443-2.47576-4.54489-4.50808-5.84476-7.51636,2.82129-1.14982,4.14729,1.14332,5.57531,2.667,8.45749,9.00309,16.86497,18.05619,24.8182,27.5179.58254.69338.91301,1.67372,1.88241,1.79544-1.71498-1.565-2.50395-3.18871-.10653-4.9602,4.10815,15.33918,6.02094,31.16524,11.41795,47.78896-6.48381-4.54284-11.56574-8.21624-16.75632-11.7201-15.02396-10.14641-31.61299-17.15193-48.31929-23.9162v-.00219Z"/>
  <path class="cls-3" d="M604.75248,125.99131c1.39326-1.33463,3.06261-2.35622,4.96239-2.32359,9.02916.15867,18.06693-1.58026,27.08747.08258-2.5736,1.2998-.85424,1.79975.46301,2.1758,5.20796,1.49111,10.62235,1.91929,15.86082,3.45603,15.88908,4.66675,29.62631,13.18295,42.66146,23.03158,5.76649,4.35591,7.70753,11.16144,10.60709,17.33017-16.17378-13.25684-34.92116-16.92375-55.22923-14.83272-.70207.0739-1.44102-.23256-2.16485-.36298,3.29079-3.49736,6.8708-6.77084,9.79212-10.5529,2.9257-3.78644-.70433-5.36232-3.30831-6.49688-8.42486-3.6669-17.23883-6.1079-26.40715-6.96864-7.42283-.6955-14.87391-1.09112-22.31213-1.61714-.67156-.97596-1.34099-1.94973-2.01268-2.92351v.00219Z"/>
  <path class="cls-18" d="M740.84,153.6505c-2.68663-13.81331-2.54746-27.70271-1.13244-41.63117.53902-7.6402,1.20634-15.27828,1.55843-22.92943.15867-3.45165,2.48007-5.63395,3.90597-8.36403,2.83442-5.42533,3.06473-11.52879,4.24944-17.37362.3326-1.63677.07164-3.37563,1.96492-4.61461,2.14973,3.59082-1.21072,8.12497,1.9693,11.381-.96727,19.2734-1.93454,38.54681-2.90394,57.82021-2.99097.66731-4.04951,2.654-4.32122,5.58831-.6433,6.98165-3.30167,13.47203-5.29273,20.12333h.00226Z"/>
  <path class="cls-18" d="M702.55614,80.68023c-1.13244,2.00406.67169,3.98855-.08902,6.81641-6.05795-6.67293-11.73967-13.00902-17.50854-19.26684-4.65792-5.05148-8.48788-10.93975-14.56745-14.56971-1.70848-2.24969-3.41696-4.4972-5.12106-6.7447,6.25138,3.16914,12.9395,5.19708,19.52122,7.50548.87812.30865,1.67372.94333,2.22362-.36735,7.66415,7.42721,12.98514,16.21949,15.54348,26.6289l-.00226-.00219Z"/>
  <path class="cls-8" d="M554.72032,130.38198c-5.89915,1.28023-10.88755,3.94511-14.11108,9.29004-1.13682-12.18092,2.45831-23.06422,9.09217-33.11278,2.96921-.31084,5.99481-.83036,8.12928,2.09753-.31508,6.44693-1.31937,12.85035-1.33025,19.32773-.00212,1.07374-.31734,2.24532-1.78012,2.3953v.00219Z"/>
  <path class="cls-3" d="M557.3917,108.7089c-2.25838-1.81713-5.52318-.02169-7.69241-2.15185,2.83217-5.91222,7.45334-10.029,13.66983-11.67008,9.22046-2.43443,18.61909-4.16248,28.26992-3.03654-.89338,2.1888-2.8778,2.12797-4.71232,2.17792-9.04003.23475-16.71944,4.43856-24.40309,8.48794-1.84977.97596-3.90172,2.34316-4.24507,4.895.39986.91076.19343,1.40414-.88688,1.2998v-.00219Z"/>
  <path class="cls-2" d="M842.82134,622.55239c-11.47009.33034-20.81008-5.15144-29.91976-11.10724-9.38563-6.13822-16.82796-14.58046-25.30297-21.80336-.76283-.65219-.96502-1.96068-1.42802-2.96483,4.35372,1.31061,7.21852,4.59929,9.99643,7.8532,3.54087,4.14503,8.05764,6.55784,13.06341,8.34446,3.14526,1.12382,6.18385.5304,8.29232-1.65409,2.11484-2.18661,1.88665-5.51442.33472-7.92285-2.44743-3.79294-2.67575-7.08373-.03264-10.83753.87812-1.24985,1.00641-3.21703,1.01516-4.86024.026-5.88827,1.94091-10.78977,6.15122-15.0826,2.96271-3.01697,2.8518-7.59025,4.15591-11.45284.19356-.5694-.07602-1.76712-.50851-2.01268-6.29702-3.58651-.55004-4.64718,1.41927-5.83401,5.10368-3.07786,10.44205-5.76662,15.69127-8.60091.82386-.44788,1.95192-.98465,1.64546-1.93892-.38248-1.18896-1.86715-.96727-2.90606-1.28461-.50652-.52377-.54128-1.07805-.10865-1.66284,3.24078-2.48445,7.3163-3.01259,10.90705-4.66456.69783-.19555,1.45416-.13479,2.06071-.74545-8.15767,1.93879-16.57165,2.87568-24.28143,6.58809-4.92764.93039-9.0074,5.44928-14.61535,3.4366,4.56015-7.17514,3.63865-12.25057-3.03223-16.70856-.8021-.70207-2.73439.63468-2.73877-1.5128,5.55793-3.58863,6.69038-5.26673,9.23359-12.83523,2.37792-7.08811,1.13456-14.86091,4.52977-21.83825,1.27811-2.63012-1.62808-4.16029-3.9321-5.18846-.94989-.42161-1.61283-1.14982-1.12369-2.18223.57816-1.22159,1.59969-.60867,2.39304-.20431,2.18674,1.11506,4.33209,2.30614,6.9252,1.38239,5.65133-2.01282,6.64036-4.20593,5.38613-10.2942-1.03241-5.00153-3.60601-9.3987-4.94714-14.31108-2.46481-9.03134-.59992-16.75851,5.13844-23.80536,4.6233-5.67747,4.67544-12.27438,4.0255-19.04296-1.11931-1.02379-.67594-1.99544.09565-2.95833,4.67981-3.39951,2.88444-8.66837,3.15176-12.97426.69119-11.16801-.3391-22.28819-4.43412-32.86065-.91513-.48901-2.13235.72602-2.91482-.48251-5.64271,3.74949-13.17207,1.69103-18.64523,6.07308-.82386.66075-2.20187.81942-2.90394-.50214-.56304-1.05636.09127-1.72798.9889-2.23663,4.6168-2.61486,3.6669-3.61251-.93238-5.00365-3.28005-.99334-3.87121-4.00593-2.08884-7.39464,4.27332-8.12928,4.14291-9.18782-2.13885-15.6195-1.73024-1.7715-2.44093-3.16264-1.05855-5.31018,5.9883-9.30517,1.14107-18.35396-.94339-27.35486-.57604-2.48226-1.73236-4.77321-1.74536-7.4946-.02176-4.22331-1.06292-8.15754-4.83411-10.8376-3.36257-2.38879-3.1235-4.84279.26295-6.95558,4.74283-2.95827,7.05999-8.1706,11.12462-11.79399,1.48666-1.32806,2.95382-3.98205-.84774-5.07536-2.45407-1.08249-5.09493-.94989-7.68153-1.2129-1.339-.13472-3.17564.48257-3.47122-1.77581,4.52101-4.54071,2.23225-10.02469,1.90191-15.14575-.14355-2.23013-1.6911-4.25157-4.13867-4.78409-5.47741-1.18896-9.22046-6.98815-5.88177-10.88111,5.32325-6.20561,2.25188-12.2635,1.56945-18.43873-.30659-2.75608-1.26073-5.39051-1.0868-8.27926.26945-4.45587-1.53681-8.13584-4.96677-11.06804-2.59748-2.22144-4.40811-5.03622-5.4514-8.31402,14.7979,4.6428,27.09834,13.33293,38.29899,23.75535,17.91052,16.66505,31.68038,36.37751,42.02891,58.43751,5.69272,12.13528,11.14413,24.40966,14.77402,37.40349,1.39114,4.97971,4.5689,9.48997,3.68641,15.02834-1.29323,2.22356-3.43421,2.46488-5.68171,2.454-15.89996-4.08208-30.27624,10.3594-26.33551,26.47673.31084,1.27154.56954,2.54746.60867,3.85595-.49352,4.46894,2.41055,6.87949,5.56218,9.12919,4.31896,3.77775,10.27251,3.97986,15.00234,6.85336-2.48445,4.20812-7.16638,3.31043-10.8638,4.72107-1.72148.65862-4.59929-1.14332-5.09493,2.0367-.44337,2.8518-2.36054,6.17523.39123,8.55315,5.06017,4.37548,4.71895,9.30742,2.53008,14.77402-.85636,2.13885-1.20846,4.44068-.04564,6.56647,2.81266,5.14063,4.26908,10.8181,6.51658,16.18254,1.33025,3.17783,3.61251,5.10581,6.32077,6.90775,1.92154,1.28023,4.56028,2.36704,3.41258,5.61876-2.11922,2.14754-5.00803,2.45838-7.70979,3.04954-6.07958,1.32813-11.77655,3.69085-17.40625,6.22525-1.55843.70426-3.84508.90638-3.82995,3.44953.62168,2.26926,2.4867,1.96492,4.0864,1.85189,6.23825-.44775,12.58303-.08258,18.4388-3.143,2.24963-1.17377,4.85799-1.84758,7.53586-1.18246,1.86065,4.03419-2.16485,4.51458-3.97111,5.73617-2.76053,1.86927-3.59739,2.95608-1.18471,5.93829,2.70189,3.3365,1.63671,8.25538-2.04532,11.46578-3.08649,2.69094-6.37091,5.20365-10.33552,6.57734-7.35331,1.33675-13.8415,4.60811-19.59937,9.24441-1.66722,1.34113-4.60817,2.42793-3.24529,5.69259.53478,2.14323,1.88891,2.94533,4.08202,2.90832,11.90497-.19993,21.74047-4.24719,28.14389-14.85667.42825-.42374.93477-.67806,1.52593-.7759,2.9192.48908,2.77565,2.65618,2.48883,4.75364-.31734,2.2954-1.58457,4.18417-2.95183,6.00794-2.86268,3.82544-2.82129,7.50972.12829,11.05272,3.41683,4.10603,3.97111,15.05885,1.1542,19.5451-3.97124,6.3209-4.2582,13.48291-2.2954,20.1624,2.92132,9.94429,1.46066,20.22104,3.52349,30.15671.40211,1.93017-.15217,3.73854-1.75637,5.07105-4.1059,2.33002-8.78346,2.83654-13.25459,3.95161-4.42337,1.10418-8.27282,3.18214-11.90271,5.81226-1.59319,1.15194-2.93657,2.39304-1.72586,4.59278,1.01503,4.2907,4.84711,3.35169,7.72504,4.14941,2.72351.75646,6.19911-.55428,7.92935,2.92132-1.93242,5.84051,1.83889,11.73529-.20218,17.60194-.48039,1.37589-.43475,2.9322-.67169,4.40148-1.60619,9.98993-3.89721,11.97661-14.20886,12.31358h.0065Z"/>
  <path class="cls-9" d="M689.01022,244.4639c-4.23856,15.6652-8.49875,31.32603-7.87496,47.79546.02614.68469-.37823,1.38457-.58254,2.07796-2.15835,1.88234-2.74527,4.36466-2.78878,7.09249-.47813,32.11944,5.12756,63.39334,14.32202,93.96297,4.01675,13.34818,8.95526,26.48542,13.8959,39.59016,8.50963,22.56858,18.64085,44.37419,28.68729,66.23207,4.98614,10.84841,10.84403,21.29909,16.33033,31.91507.73457,1.4194,2.68,3.15826.87586,4.32334-1.97355,1.27373-2.6126-1.35201-3.45822-2.63449-19.14074-29.05889-36.95136-58.89176-51.00592-90.77857-8.57703-19.46683-16.61065-39.10109-22.70323-59.63516-4.17555-14.07632-7.47072-28.26561-9.93779-42.57881-3.37782-19.57555-3.29955-39.39236.22381-59.09832,2.67801-14.98051,5.21672-29.97184,13.54818-43.16566.57378-.91076,1.22809-1.7715,1.87153-2.69094,3.20814,2.48445,1.35413,10.19642,8.59878,7.58588l-.00226.00657Z"/>
  <path class="cls-14" d="M836.21574,358.52838c1.04342-.53252,2.08884-1.06724,3.13438-1.59764,4.72757,11.69191,5.57319,23.89451,4.41024,36.26454-.38686,4.13853.56728,8.74876-2.88218,12.22436-1.03029.59773-.73033,1.5063-.56516,2.38448-.96939,2.39311-1.84327,4.83192-2.92344,7.17507-6.27526,13.6307-20.90361,18.52132-34.03654,11.06147-13.44377-7.63589-21.69046-19.91027-28.35257-33.36711-2.37579-4.79716-5.00803-9.57475-5.82526-15.50647,25.40512,4.05376,48.05197-.87819,67.03842-18.63873h.00212Z"/>
  <path class="cls-16" d="M740.19219,360.71718c7.85108,6.16223,9.82263,14.27194,7.09899,23.46633-3.01472,10.17248-10.25075,15.97385-20.68829,17.2389-9.86827,1.19765-17.60406-3.13438-22.97294-11.15063-5.34925-7.98587-5.55793-16.61072-.61292-24.9248,5.05791-8.50532,12.90249-12.01137,22.67723-11.42883.3586,2.03451-1.08468,3.51474-1.62145,5.27317-1.24985,4.08202.58241,8.78359,3.90371,10.07032,3.69729,1.4324,8.36184-.63899,10.24637-4.5624.64131-1.33456.76734-2.92351,1.9693-3.98205Z"/>
  <path class="cls-11" d="M740.19445,360.71936c.22381,5.25579-1.6976,9.11181-7.13813,10.4138-4.01476.96289-7.45984-.22825-9.67909-3.75606-3.1909-5.07317-1.83239-9.5508,2.31702-13.45458,8.3706-1.61939,11.33968-.22394,14.50019,6.79684Z"/>
  <path class="cls-9" d="M801.30107,256.03402c3.56475,1.56931,8.39236-1.57157,11.15275,2.98871-12.96113,5.23184-25.83987,10.71369-39.75089,13.3503,1.89965-6.96646,10.75939-11.98968,28.59814-16.33902Z"/>
  <path class="cls-17" d="M706.63166,321.94437c-1.17158-7.01859,3.51036-14.11546,10.43343-15.81299,6.19473-1.51936,13.50241,2.54309,15.80431,8.74439.47813,1.2868.92588,2.59529-.32609,3.57563-1.06292.83248-2.03444-.00219-3.04523-.51952-10.15072-5.19277-12.95688-4.34503-18.5322,5.57531-.5629.99984-.97377,2.18449-2.40617,1.61064-1.34988-.54121-1.80626-1.79757-1.92579-3.17345h-.00226Z"/>
  <path class="cls-9" d="M812.68639,516.12381c.91301.50427,1.82801,1.01065,2.73877,1.51718-8.83997,3.53212-17.60406,7.2554-27.00495,9.20295-3.68203.76084-7.29679,1.53893-11.92872,1.06292,8.55102-5.2536,17.09767-8.68794,26.27024-10.1007,3.31481-.5109,6.62086-1.07593,9.92253-1.68234h.00212Z"/>
  <path class="cls-15" d="M818.45526,534.34941c5.03191-1.64971,10.06594-3.29955,15.09786-4.94714,7.10337-2.84955,14.69137-3.90597,22.01217-5.95129.79335-.22394,1.95405-.57604,2.11484.76071.12829,1.07818-1.03241,1.40202-1.71923,1.97156-3.72342,1.90841-7.64252,3.26904-11.71804,4.17767-3.98849,2.4148-8.99002,1.78012-12.94813,4.29283-5.74924,1.65409-11.59188,2.76265-17.841,2.92132.78897-2.50833,3.12788-2.53871,5.00578-3.2234l-.00425-.00226Z"/>
  <path class="cls-2" d="M831.29036,534.65163c3.74956-3.13876,8.65756-2.78228,12.94826-4.29296.08252.34785.16729.69119.25207,1.03679-4.39936,1.08468-8.80097,2.17149-13.20033,3.25617Z"/>
  <path class="cls-13" d="M849.46833,347.59293c-3.53649-14.38928.21519-25.25952,11.23102-31.22607,4.71882-2.55396,9.84864-4.43418,15.23915-1.37589.18905,1.79757-1.01503,3.12131-1.59333,4.65806-1.71498,4.56459-.41724,8.62704,3.35394,10.48112,3.54299,1.74324,7.42071.43687,9.98767-3.4017.80648-1.20853,1.1412-2.77353,2.654-3.43427.31959-.04783.64343-.0587.96515-.02826,4.51027,7.79456,4.97314,16.0238,2.64736,24.55526-2.02356,9.03566-8.67918,12.99602-16.82372,15.25002-2.15623.59561-4.41886,1.04767-6.33815-.76728-5.84277-.09346-10.98108-2.04539-15.43271-5.82095-2.10834-2.8648-5.76224-4.71019-5.8904-8.89005Z"/>
  <path class="cls-5" d="M890.33866,323.28762c-1.02379,3.65821-2.21712,7.2229-6.26001,8.66618-4.18205,1.49548-7.78368.59561-10.43555-3.04085-3.31693-4.54502-2.56047-8.80966,2.2889-13.92415,2.03444-.41518,4.06676-.83029,6.09908-1.2411,4.84498,1.37589,7.44896,4.69713,8.30758,9.53992Z"/>
  <path class="cls-2" d="M870.79143,362.30612c10.62673-.18262,18.14308-5.34275,23.16624-14.48494-2.21699,12.69606,2.60624,24.71612,3.77781,37.08827,1.75624,18.54526,4.03413,37.04051,5.19708,55.6531,1.53893,24.6531,1.13019,49.29088-.46513,73.90053-1.23685,19.0626-4.14729,37.95127-7.32293,56.78992-1.33463,7.92285-2.12359,15.93259-4.26244,23.71627-3.80382,13.84588-13.60682,21.54691-26.63972,25.63556-6.91644,2.16923-14.03506,4.045-21.42101,1.94755,11.05723-2.78003,11.33105-2.97571,12.95038-14.29801.66731-4.68419,2.41493-9.45302-.24994-14.12634-1.58019-2.76915,1.33675-4.36248,1.83451-6.59685,1.54106-2.57572,4.36248-2.54096,6.77727-3.18002,4.96452-1.31287,9.17708-3.80169,12.69394-7.49686,1.39326-1.46278,2.43005-2.98433-.06527-4.42761,1.40414-3.4082.05877-4.39498-3.35593-4.34934-1.74112.02176-4.28208.9759-5.11244-1.91279,1.78025-1.40627,1.31287-3.18002,1.11082-5.11456-1.29774-12.38084-2.89532-24.72255-4.38423-37.07739-.60642-5.01665-.39561-10.98108,4.59942-14.84141,1.42577-1.09981,1.24322-2.54521.87812-4.0864-.68469-2.89956-1.72586-5.71873-1.31725-8.82697.28046-2.14097-1.33463-3.24303-2.93007-4.39286-4.86236-3.50611-4.99702-5.24935-.96289-9.79,1.98668-2.23875,4.17555-4.31896,4.76021-7.46196.37385-1.99968.76297-3.92123-2.32578-3.70604-.21081-2.81479-2.18449-2.56484-4.24069-2.73439-2.08233-.17167-4.80585,1.59764-6.14472-1.57369,4.27107-1.16501,7.42721-4.21243,10.7245-6.8186,3.4496-2.72351,3.05836-7.92935-.55853-10.79846-3.1974-2.53665-2.06496-3.84295.93464-4.93195,3.03209-1.10199,5.28836-3.24954,7.55536-5.40358-.98677-2.06058.85212-2.8648,1.86715-3.92335,1.4064-1.46723,2.74753-2.86487,2.2345-5.11237-1.09118-2.86699-4.38848-.08258-5.75574-2.23444-.34334-1.39545-1.28236-2.39967-2.53871-2.83873-7.65765-2.67356-9.19658-9.65952-11.4876-16.11733-.31296-.8825-.23256-2.01713-.76283-2.69313-4.91026-6.22299-4.006-12.68299-1.11944-19.36249,1.41714-3.28217-1.48242-4.61892-3.28867-6.39042-2.01494-1.9758-3.03661-11.74617-1.39764-13.73504.74333-.902,1.72148-.23688,2.59748-.24344,5.11443-.03695,9.95729-1.1542,14.4523-3.64946h-.00212Z"/>
  <path class="cls-8" d="M769.03603,90.62233c-3.67991-.01738-5.7231-1.93236-3.84733-5.26229,5.59057-9.92691,9.90303-20.54282,16.42824-29.96321,7.09673-10.24856,16.41285-17.27803,28.60026-20.2298,1.96492-.47601,4.07552-.51952,6.11009-.47601,1.62583.03476,4.47325-2.18887,4.59066.4847.0934,2.09321,1.21496,5.39708-2.31928,7.14682-9.29873,4.60804-17.15419,11.3093-24.87697,18.13446-1.2411,1.09331-2.81704,1.96274-3.06699,3.86033-8.39222,7.79456-15.73479,16.44986-21.61868,26.305h0Z"/>
  <path class="cls-18" d="M557.38958,108.70678c.29558-.43256.59328-.86731.88674-1.29987,1.93017-.34991,3.49523.26958,3.92985,2.21712,2.53008,11.28104,6.74265,22.18603,7.50773,33.86918.20431,3.13-.67381,6.04913-3.51911,6.89899-3.26254.97165-5.92091-.81942-7.85758-3.91897-2.9322-4.69069-2.71489-9.96817-3.53862-15.06966-.00876-.34341-.03701-.68469-.0804-1.02379,1.42365-7.15769-.62393-14.74357,2.67137-21.67301Z"/>
  <path class="cls-18" d="M632.95076,29.33309c-1.57807,2.31052-3.81045,4.39286-2.66487,7.65108-1.60633,2.91482-3.15388,5.86439-4.83411,8.73357-1.26285,2.16273-3.05611,3.72554-5.57319,4.39505-4.9015,1.2998-7.96623-1.47592-6.55996-6.29914,1.1607-3.98205,3.26479-7.59894,6.47745-10.31377,2.95608-2.49533,6.71426-4.04726,8.27707-8.07283.50427-1.29761,2.21487-1.35632,3.50824-.85636,2.45181.9477,1.75186,2.93001,1.36938,4.76452v-.00212Z"/>
  <path class="cls-8" d="M832.64674,50.65832c1.69972,4.682-.5434,8.60535-3.60601,12.05707-7.57513,8.54008-17.25196,14.30451-27.17237,19.60374-4.25157,2.27145-9.10517-1.06286-8.66618-5.89484.47826-5.25579,1.1412-10.26594,5.52105-14.53276,6.45781-6.2882,12.57865-12.8873,20.49924-17.34105,5.86227-3.29517,11.68965-.59554,13.42201,6.10784h.00226Z"/>
  <path class="cls-9" d="M868.29385,566.16896c3.06924.31946,6.14047.64768,9.21184.95852,1.40627.14341,3.35819-.3391,3.61039,1.60845.22593,1.74974-1.85627,1.32375-2.83004,1.99318-.58904.40649-1.10206.92814-1.64759,1.39764-6.69263,5.11231-14.88055,6.42518-22.6491,8.67931-3.80382,1.10418-7.72066,3.17776-11.90921,1.15194-3.79732-.85636-4.54715-1.99756-1.21722-5.01891,7.8467-7.12075,17.9019-8.19004,27.43319-10.77014h-.00226Z"/>
  <path class="cls-2" d="M842.07801,581.95589c11.82006-2.2215,22.94455-6.89256,34.56044-9.83126,1.39977.04564,3.143-1.45628,4.11452.06514,1.07818,1.68898-.65856,3.117-1.60195,4.36035-5.45565,7.19026-13.55892,9.24209-21.79473,10.98108-4.68844-.70645-9.38351-1.38026-14.06319-2.13885-2.35404-.38261-3.58651-1.30849-1.21722-3.43646h.00212Z"/>
  <path class="cls-9" d="M857.33241,466.55891c2.8843,1.06724,5.81438-.09127,8.72044.16086,1.25211.10872,2.89319-.30865,3.46485.98465.62818,1.41721-1.61071,1.8367-1.79763,3.16257l.02614.00438c-1.76725,2.65174-4.66456,3.54512-7.38157,4.68844-6.15135,2.5866-12.43749,4.81673-18.72788,7.02509-2.22362.77822-4.62768,1.55207-6.98383.1653-.73683.07814-1.70848.49551-2.16923.17817-1.5128-1.04555-.04564-1.96055.51514-2.63012,5.04929-6.00568,11.568-9.83776,18.90605-12.35259,1.76062-.60642,3.61477-.93245,5.42752-1.38676Z"/>
  <path class="cls-4" d="M840.44992,273.40114c4.92976,1.31068,7.53161,5.06886,9.57043,9.30955.5304,1.10637,1.04992,2.6388-.52815,3.47779-1.18033.62818-1.98018-.33041-2.9192-.98684-7.26204-5.09493-12.7287-3.99287-17.16719,3.50605-.9824,1.66065-1.7041,3.37126-4.032,3.23003-4.24507-3.75606-1.78025-7.65115-.23694-11.52448,1.12806-1.38464,2.25838-2.76922,3.38645-4.15379,3.36257-3.51036,7.26854-4.75802,11.92659-2.8583h0Z"/>
  <path class="cls-2" d="M880.57268,429.26852c2.73651,1.59757,1.52142,3.17776-.02614,4.74714-1.5128,1.53674-3.03661,3.06042-4.5559,4.59066-8.88787,2.69094-17.64757,5.95136-27.17012,5.64052-2.4997-.08258-5.77312,1.19327-4.86236-3.50167,1.08468-1.6976,2.80391-2.41705,4.64068-2.82792,9.27698-2.08227,18.16922-5.37532,27.10484-8.53789,1.61071-.56954,3.22566-.91076,4.869-.11084Z"/>
  <path class="cls-2" d="M834.65292,482.7502c11.46146-2.7584,22.0208-8.0315,33.09328-11.87671-1.50417,8.37285-8.80747,10.80729-14.97182,14.07858-4.63205,2.45831-10.12259,2.03006-15.26754,2.31264-2.60398.14567-5.67521-.63905-2.85392-4.51451Z"/>
  <path class="cls-9" d="M880.5748,429.26852c-11.86145,4.92319-24.04887,8.8009-36.61452,11.47665-1.91491-2.69963.73471-3.1235,2.11059-3.87121,8.86399-4.80154,18.54957-7.2229,28.26568-9.53999,2.04758-.10215,4.13416-.49995,6.12734-.22825,2.32803.31522-.19993,1.4259.10879,2.16061l.00212.00219Z"/>
  <path class="cls-2" d="M840.87817,405.41965c3.39083-16.28688,3.21478-32.45854-1.53018-48.48891,1.84539,2.54096,5.40351,14.68712,5.48616,19.10604.14779,7.77718.39986,15.56086.20431,23.33373-.06302,2.50833-.81948,5.38839-4.16241,6.05132l.00212-.00219Z"/>
  <path class="cls-9" d="M855.95865,526.18325c.71507-1.44328,1.62371-2.78003-1.34763-1.99318-6.98821,1.85189-14.03493,3.4886-21.0579,5.21008,7.76842-4.33196,16.6803-4.72545,24.98125-7.22728,1.54769-.46513,2.68663.43263,2.32578,2.11272-.6303,2.93445-2.84955,2.32803-4.90362,1.89541l.00212.00226Z"/>
  <path class="cls-2" d="M825.139,280.41323c-.5694,3.85377-2.6605,7.74236.23694,11.5266-3.14088-1.21072-3.27779-1.72367-2.91906-6.36647.16729-2.19537.72807-3.98643,2.68212-5.16013Z"/>
  <path class="cls-2" d="M840.45218,273.39895c-4.37548-.71295-8.28808.50214-11.92659,2.8583,3.55162-4.66675,6.83817-5.45359,11.92659-2.8583Z"/>
  <path class="cls-2" d="M849.47045,347.59293c1.9628,2.96483,3.92547,5.92741,5.89053,8.89005-3.27129-2.09534-6.71651-4.07983-5.89053-8.89005Z"/>
  <path class="cls-7" d="M809.46299,394.39074c-7.41858,1.49111-14.55445,1.34982-21.34486-2.36923-2.21487-1.21284-4.76021-2.80397-4.032-5.39926.6043-2.15185,3.49736-1.32368,5.48616-1.31068,14.11108.07608,26.82452-4.21462,38.4294-12.12652,1.07818-.73471,2.09321-2.68225,3.73642-1.50636,1.4064,1.0086.76734,2.92138.48476,4.219-1.61283,7.42289-7.11212,11.65708-13.30248,15.00446-2.9257,1.5845-6.29264,2.35397-9.45953,3.49298l.00212-.00438Z"/>
  <path class="cls-12" d="M811.35402,409.79731c6.83167-1.56281,12.54389-1.54112,18.01055,1.30418,2.18661,1.13894,3.04523,2.36704,1.44102,4.84492-5.90565,9.1205-21.90989,10.86374-29.57191,3.23653-1.77587-1.76712-.49551-2.61917.4435-3.66034,2.87568-3.17783,6.68162-4.75371,9.67683-5.7231v-.00219Z"/>
</svg>